<svg fill="none" stroke-linecap="round" stroke-linejoin="round" stroke="#c87" viewBox="0 0 194 36" xmlns="http://www.w3.org/2000/svg"><path d="M26.5 1.5h-4v3h4-4v3h4m-7-6-2 6-2-6m-4 0a1 1 0 0 1 1 1v4a1 1 0 0 1-1 1h-2a1 1 0 0 1-1-1v-4a1 1 0 0 1 1-1h2Zm-6 0h-3a1 1 0 0 0-1 1v4a1 1 0 0 0 1 1h3m24 0v-6l4 6v-6"/><path d="M26.5 4.5h-4v3h4-4v3h4m3 0v-6l4 6v-6m7 0h-3a1 1 0 0 0-1 1v4a1 1 0 0 0 1 1h3v-3m3-3v6m3 0v-6l4 6v-6m7 0h-4v3h4-4v3h4m7-6h-4v3h4-4v3h4m3 0v-6h3c.6 0 1 .4 1 1v1c0 .6-.4 1-1 1h-3 2l2 3m3-6v6m3 0v-6l4 6v-6m7 0h-3a1 1 0 0 0-1 1v4a1 1 0 0 0 1 1h3v-3"/><path d="M2.5 24.5h9a3 3 0 0 0 3-3v-3a3 3 0 0 0-3-3h-9v18m21-9h9a3 3 0 0 0 3-3v-3a3 3 0 0 0-3-3h-9v18m0-9h6l6 9m21-18h-12v9h12-12v9h12m135-18h-9a3 3 0 0 0-3 3v3a3 3 0 0 0 3 3h6a3 3 0 0 1 3 3v3a3 3 0 0 1-3 3h-9m-9-18h-12v9h12-12v9h12m-105-18v18h8a4 4 0 0 0 4-4v-10a4 4 0 0 0-4-4h-8Zm21 18v-18m21 0h-8a4 4 0 0 0-4 4v10a4 4 0 0 0 4 4h8m9 0v-15a3 3 0 0 1 3-3h6a3 3 0 0 1 3 3v6h-12 12v9m9-18h12-6v18" stroke-width="3"/></svg>