<svg xmlns="http://www.w3.org/2000/svg" xml:space="preserve" fill-rule="evenodd" stroke-linecap="round" stroke-linejoin="round" stroke-miterlimit="2" clip-rule="evenodd" viewBox="0 0 440 80"><g fill-rule="nonzero"><path fill="#a37" stroke="#a37" stroke-width="10" d="M27.2 66.1c1.5 0 2.7-.1 3.6-.5 1-.3 1.6-.8 2-1.5.5-.7.7-1.5.7-2.6 0-1-.2-1.7-.7-2.4a5.6 5.6 0 0 0-2.2-1.6c-1-.5-2.2-1-3.7-1.4l-5.2-1.4c-1.8-.5-3.6-1.1-5.2-1.8s-3.1-1.6-4.4-2.8a12 12 0 0 1-3-4.3c-.7-1.7-1-3.9-1-6.4 0-3.4.6-6.2 2-8.4 1.5-2.2 3.5-3.8 6-4.9a25 25 0 0 1 16.4-.3 10 10 0 0 1 4.5 3.9c1 1.7 2 4 2.6 6.8l-3.1-2.7 1.5-8.5h5.6v13h-6.7a9.7 9.7 0 0 0-5.6-6.8 12 12 0 0 0-4.7-.9c-1.3 0-2.4.1-3.3.4-.8.3-1.4.8-1.8 1.4-.4.6-.6 1.4-.6 2.3 0 1 .3 1.7.7 2.3a5 5 0 0 0 2 1.6l3.3 1 4.5 1.1c2.1.5 4 1 6 1.7 1.8.7 3.4 1.6 4.8 2.7 1.3 1.1 2.4 2.5 3.2 4.2a16 16 0 0 1 1.2 6.5c0 3.5-.7 6.4-2 8.9a13 13 0 0 1-6 5.6 23 23 0 0 1-10.1 1.9c-3 0-5.6-.4-8-1.2a12 12 0 0 1-5.6-4 19 19 0 0 1-3.2-8l2.7 2.3L13 71H7.1V56.4h7.4a15 15 0 0 0 3 5.6 13 13 0 0 0 9.7 4.1Zm32.5-32.5c-2.5 0-4.4-.5-5.8-1.6-1.4-1.1-2.1-2.7-2.1-4.8 0-2 .7-3.7 2-4.8 1.5-1 3.4-1.6 5.9-1.6 2.5 0 4.4.5 5.8 1.6 1.4 1.1 2 2.7 2 4.8 0 2-.6 3.7-2 4.8a9.1 9.1 0 0 1-5.8 1.6Zm7.7 2.8V63c0 1.2.2 2 .7 2.3a3 3 0 0 0 1.9.7h.1v5H49.8v-5h.1c.8 0 1.5-.3 2-.7.4-.4.6-1.1.6-2.3V43.8c0-.5-.2-.8-.5-1-.4-.3-1-.4-1.7-.6l-.5-.1v-5.7h17.6Zm5.8 34.7v-5h.1a3 3 0 0 0 1.9-.7c.4-.4.7-1.1.7-2.3V43.8c0-.3-.1-.6-.3-.8l-.7-.4a10 10 0 0 0-1.2-.4l-.5-.1v-5.7h16.2l.9 8.4.5-.2v21s0 .2.3.3l.6.1h1v5.1H73.2Zm41.8 0H96.2v-5h1l.7-.2.2-.4V47c0-.7 0-1.2-.2-1.7a2 2 0 0 0-.7-1c-.3-.3-.8-.4-1.4-.4-.6 0-1.3.2-2 .7-.7.5-1.5 1.3-2.3 2.4a32 32 0 0 0-2.5 4.4l.2-6c.8-1.9 2-3.5 3.3-5a13.3 13.3 0 0 1 10.1-4.6c2.2 0 4.1.4 5.7 1.2 1.5.9 2.7 2.1 3.6 3.7a13 13 0 0 1 1.2 6v19l.3.3.7.1h1v5.1Zm23 0h-19.5v-5h1l.7-.2c.2-.1.3-.2.3-.4V47c0-.7-.1-1.2-.3-1.7-.1-.4-.3-.8-.7-1-.3-.3-.7-.4-1.3-.4-.8 0-1.5.2-2.2.8-.7.5-1.4 1.3-2.2 2.4a35 35 0 0 0-2.6 4.2l.3-6a24 24 0 0 1 3.3-5c1.4-1.4 3-2.5 4.7-3.3 1.7-.8 3.5-1.2 5.4-1.2 2.3 0 4.2.4 5.7 1.2 1.6.9 2.7 2.1 3.6 3.7a14 14 0 0 1 1.2 6v16.5c0 1.2.2 2 .6 2.3a3 3 0 0 0 1.9.7h.2v5Zm20.3-34.7v24c0 .6 0 1.2.2 1.7s.4.9.8 1.1c.4.3.9.4 1.5.4.8 0 1.5-.2 2.3-.8a11 11 0 0 0 2.3-2.5c.9-1.2 1.7-2.6 2.6-4.4l-.2 6.2a15.9 15.9 0 0 1-8.1 8.4c-1.8.8-3.7 1.2-5.6 1.2-2.3 0-4.2-.4-5.8-1.2a8.7 8.7 0 0 1-3.7-3.8c-.9-1.6-1.3-3.6-1.3-6V43.8c0-.5-.1-.8-.5-1-.3-.3-.9-.5-1.7-.6l-.6-.1v-5.7h17.8Zm22.8 0v27.4c0 .4.1.6.3.8.1.2.3.4.7.5l1.2.4.5.1v5.5h-16.1l-1-8.2-.5-.4V43.8c0-.5-.3-.9-.9-1.1-.6-.3-1.3-.5-2-.6l-.9-.1v-5.6h18.7Zm23.5-13.8v40.5c0 1.2.3 2 .7 2.3a3 3 0 0 0 1.9.7h.1v5H187v-5h.2c.8 0 1.4-.3 1.8-.7.5-.4.7-1.1.7-2.3V30c0-.3 0-.6-.2-.8l-.7-.5a14 14 0 0 0-1.3-.4l-.5-.1v-5.5h17.6Zm28.9 42.7c1.2 0 2.3-.3 3.3-.9 1-.6 1.9-1.3 2.6-2.3.8-.9 1.4-1.9 2-2.9l4.8 3c-.8 2-2 3.6-3.3 5a14 14 0 0 1-5.1 3.4 25.7 25.7 0 0 1-17.5-.8 16 16 0 0 1-7.2-6c-1.7-2.7-2.6-6-2.6-10.1 0-4 .8-7.2 2.5-9.9 1.6-2.7 4-4.7 7-6 3-1.4 6.7-2 11-2a40.3 40.3 0 0 1 11.4 1.5c1.3.4 2.2.8 2.7 1.2v11.2h-10.8V39.4c.7 0 1.1.2 1.4.5.3.4.5.9.6 1.4v1.4c-.1.5-.3.7-.4.8a5.3 5.3 0 0 0-4-1.5 5 5 0 0 0-3.5 1.2c-1 .8-1.6 2-2 3.8a30.2 30.2 0 0 0-.1 12 10 10 0 0 0 1.3 3.6c.7 1 1.4 1.6 2.4 2 1 .5 2.1.7 3.5.7ZM272 50.2v4.7c-1.5.3-2.7.6-3.8 1-1 .3-1.8.7-2.5 1.2-.6.4-1 .9-1.4 1.4-.4.5-.6 1-.7 1.6a8 8 0 0 0 .1 4.1c.3.6.6 1 1.1 1.2a4 4 0 0 0 3.6 0l1.8-1.6c.6-.7 1.2-1.6 1.8-2.7l.7 3c-.9 1.9-1.8 3.4-2.9 4.5-1 1.1-2.3 2-3.7 2.4-1.4.6-3.1.8-5 .8-2.6 0-4.7-.3-6.4-1a7 7 0 0 1-3.6-2.9 10 10 0 0 1-1.2-5.2A9 9 0 0 1 251 58c.8-1.3 2-2.4 3.8-3.4 1.8-1 4-1.7 6.9-2.4 2.8-.7 6.2-1.4 10.2-2Zm.6 21-.8-6.9-.6.3V44.7c0-.5 0-1-.3-1.5-.2-.5-.6-.8-1.2-1-.5-.3-1.4-.5-2.5-.5a9 9 0 0 0-4 .7c-1.1.4-1.9.9-2.2 1.4-.5-.2-.8-.4-1-.8 0-.3 0-.6.2-1l1-.9c.6-.2 1.3-.3 2.1-.3v7.5H252v-8.4a33.2 33.2 0 0 1 8.8-3.4 35.2 35.2 0 0 1 15.2-.1c2.1.5 4 1.2 5.4 2.2 1.4 1 2.5 2.1 3.3 3.6a11 11 0 0 1 1 5.1v16.5c0 .4.2.6.3.8.1.2.4.4.7.5l1.3.4.5.1v5.5h-16Zm40.4-8.4c0-.8-.2-1.4-.6-1.8-.4-.5-1-.9-1.7-1.2a14 14 0 0 0-2.5-.7 77.7 77.7 0 0 1-7.2-1.9c-1.5-.4-2.8-1-4-1.8a8.3 8.3 0 0 1-2.8-3.1c-.7-1.3-1-3-1-5 0-2.8.7-5 2.1-6.8 1.5-1.7 3.5-3 6-3.8a42.2 42.2 0 0 1 20.7.4l2.4 1v7.7h-9.8v-6c.8 0 1.4 0 1.8.2.4.2.6.5.6.8v.9c0 .3-.2.6-.3.8a10.8 10.8 0 0 0-3.9-1.1l-2.6-.2c-1.5 0-2.7.2-3.4.6-.7.4-1.1 1-1.1 2 0 .7.2 1.3.6 1.7.3.4.9.7 1.6 1l2.5.7a92.2 92.2 0 0 1 7.7 2c1.5.5 3 1.2 4.2 2 1.3.8 2.3 1.9 3 3.1a9 9 0 0 1 1.2 4.8c0 3-.6 5.5-2 7.3a11.6 11.6 0 0 1-6.2 4.2 43 43 0 0 1-22.6-.4l-3-1.2v-8.5h10v7.7c-1-.2-1.6-.6-2.1-1-.6-.5-.9-1-1-1.4-.2-.5-.2-.8 0-1 .1-.3.4-.3.9 0a25 25 0 0 0 4.3 1.2l3.2.2c1.2 0 2.1-.1 2.9-.3.7-.3 1.2-.6 1.6-1.1a4 4 0 0 0 .5-2Zm15.5-20.4v-5.7h.3l2.4-.2c.6-.2 1.2-.5 1.6-1a4 4 0 0 0 .5-2.2l8.3 3H357v6h-28.4Zm19.4 17.4c0 1.3.1 2.3.5 3 .4.7.9 1.2 1.5 1.5a14 14 0 0 0 5 .2l1.7-.3v6.5a41 41 0 0 1-9.1 1.1c-3 0-5.5-.3-7.6-1a9.7 9.7 0 0 1-5.2-3.4 11 11 0 0 1-1.8-6.8V37.7l.4-.6V26.6H348v33.2Z"/><path fill="#e56" stroke="#e56" stroke-width="10" d="M27.2 62.1c1.5 0 2.7-.1 3.6-.5 1-.3 1.6-.8 2-1.5.5-.7.7-1.5.7-2.6 0-1-.2-1.7-.7-2.4a5.6 5.6 0 0 0-2.2-1.6c-1-.5-2.2-1-3.7-1.4l-5.2-1.4c-1.8-.5-3.6-1.1-5.2-1.8s-3.1-1.6-4.4-2.8a12 12 0 0 1-3-4.3c-.7-1.7-1-3.9-1-6.4 0-3.4.6-6.2 2-8.4 1.5-2.2 3.5-3.8 6-4.9a25 25 0 0 1 16.4-.3 10 10 0 0 1 4.5 3.9c1 1.7 2 4 2.6 6.8l-3.1-2.7 1.5-8.5h5.6v13h-6.7a9.7 9.7 0 0 0-5.6-6.8 12 12 0 0 0-4.7-.9c-1.3 0-2.4.1-3.3.4-.8.3-1.4.8-1.8 1.4-.4.6-.6 1.4-.6 2.3 0 1 .3 1.7.7 2.3a5 5 0 0 0 2 1.6l3.3 1 4.5 1.1c2.1.5 4 1 6 1.7 1.8.7 3.4 1.6 4.8 2.7 1.3 1.1 2.4 2.5 3.2 4.2a16 16 0 0 1 1.2 6.5c0 3.5-.7 6.4-2 8.9a13 13 0 0 1-6 5.6 23 23 0 0 1-10.1 1.9c-3 0-5.6-.4-8-1.2a12 12 0 0 1-5.6-4 19 19 0 0 1-3.2-8l2.7 2.3L13 67H7.1V52.4h7.4a15 15 0 0 0 3 5.6 13 13 0 0 0 9.7 4.1Zm32.5-32.5c-2.5 0-4.4-.5-5.8-1.6-1.4-1.1-2.1-2.7-2.1-4.8 0-2 .7-3.7 2-4.8 1.5-1 3.4-1.6 5.9-1.6 2.5 0 4.4.5 5.8 1.6 1.4 1.1 2 2.7 2 4.8 0 2-.6 3.7-2 4.8a9.1 9.1 0 0 1-5.8 1.6Zm7.7 2.8V59c0 1.2.2 2 .7 2.3a3 3 0 0 0 1.9.7h.1v5H49.8v-5h.1c.8 0 1.5-.3 2-.7.4-.4.6-1.1.6-2.3V39.8c0-.5-.2-.8-.5-1-.4-.3-1-.4-1.7-.6l-.5-.1v-5.7h17.6Zm5.8 34.7v-5h.1a3 3 0 0 0 1.9-.7c.4-.4.7-1.1.7-2.3V39.8c0-.3-.1-.6-.3-.8l-.7-.4a10 10 0 0 0-1.2-.4l-.5-.1v-5.7h16.2l.9 8.4.5-.2v21s0 .2.3.3l.6.1h1v5.1H73.2Zm41.8 0H96.2v-5h1l.7-.2.2-.4V43c0-.7 0-1.2-.2-1.7a2 2 0 0 0-.7-1c-.3-.3-.8-.4-1.4-.4-.6 0-1.3.2-2 .7-.7.5-1.5 1.3-2.3 2.4a32 32 0 0 0-2.5 4.4l.2-6c.8-1.9 2-3.5 3.3-5a13.3 13.3 0 0 1 10.1-4.6c2.2 0 4.1.4 5.7 1.2 1.5.9 2.7 2.1 3.6 3.7a13 13 0 0 1 1.2 6v19l.3.3.7.1h1v5.1Zm23 0h-19.5v-5h1l.7-.2c.2-.1.3-.2.3-.4V43c0-.7-.1-1.2-.3-1.7-.1-.4-.3-.8-.7-1-.3-.3-.7-.4-1.3-.4-.8 0-1.5.2-2.2.8-.7.5-1.4 1.3-2.2 2.4a35 35 0 0 0-2.6 4.2l.3-6a24 24 0 0 1 3.3-5c1.4-1.4 3-2.5 4.7-3.3 1.7-.8 3.5-1.2 5.4-1.2 2.3 0 4.2.4 5.7 1.2 1.6.9 2.7 2.1 3.6 3.7a14 14 0 0 1 1.2 6v16.5c0 1.2.2 2 .6 2.3a3 3 0 0 0 1.9.7h.2v5Zm20.3-34.7v24c0 .6 0 1.2.2 1.7s.4.9.8 1.1c.4.3.9.4 1.5.4.8 0 1.5-.2 2.3-.8a11 11 0 0 0 2.3-2.5c.9-1.2 1.7-2.6 2.6-4.4l-.2 6.2a15.9 15.9 0 0 1-8.1 8.4c-1.8.8-3.7 1.2-5.6 1.2-2.3 0-4.2-.4-5.8-1.2a8.7 8.7 0 0 1-3.7-3.8c-.9-1.6-1.3-3.6-1.3-6V39.8c0-.5-.1-.8-.5-1-.3-.3-.9-.5-1.7-.6l-.6-.1v-5.7h17.8Zm22.8 0v27.4c0 .4.1.6.3.8.1.2.3.4.7.5l1.2.4.5.1v5.5h-16.1l-1-8.2-.5-.4V39.8c0-.5-.3-.9-.9-1.1-.6-.3-1.3-.5-2-.6l-.9-.1v-5.6h18.7Zm23.5-13.8v40.5c0 1.2.3 2 .7 2.3a3 3 0 0 0 1.9.7h.1v5H187v-5h.2c.8 0 1.4-.3 1.8-.7.5-.4.7-1.1.7-2.3V26c0-.3 0-.6-.2-.8l-.7-.5a14 14 0 0 0-1.3-.4l-.5-.1v-5.5h17.6Zm28.9 42.7c1.2 0 2.3-.3 3.3-.9 1-.6 1.9-1.3 2.6-2.3.8-.9 1.4-1.9 2-2.9l4.8 3c-.8 2-2 3.6-3.3 5a14 14 0 0 1-5.1 3.4 25.7 25.7 0 0 1-17.5-.8 16 16 0 0 1-7.2-6c-1.7-2.7-2.6-6-2.6-10.1 0-4 .8-7.2 2.5-9.9 1.6-2.7 4-4.7 7-6 3-1.4 6.7-2 11-2a40.3 40.3 0 0 1 11.4 1.5c1.3.4 2.2.8 2.7 1.2v11.2h-10.8V35.4c.7 0 1.1.2 1.4.5.3.4.5.9.6 1.4v1.4c-.1.5-.3.7-.4.8a5.3 5.3 0 0 0-4-1.5 5 5 0 0 0-3.5 1.2c-1 .8-1.6 2-2 3.8a30.2 30.2 0 0 0-.1 12 10 10 0 0 0 1.3 3.6c.7 1 1.4 1.6 2.4 2 1 .5 2.1.7 3.5.7ZM272 46.2v4.7c-1.5.3-2.7.6-3.8 1-1 .3-1.8.7-2.5 1.2-.6.4-1 .9-1.4 1.4-.4.5-.6 1-.7 1.6a8 8 0 0 0 .1 4.1c.3.6.6 1 1.1 1.2a4 4 0 0 0 3.6 0l1.8-1.6c.6-.7 1.2-1.6 1.8-2.7l.7 3c-.9 1.9-1.8 3.4-2.9 4.5-1 1.1-2.3 2-3.7 2.4-1.4.6-3.1.8-5 .8-2.6 0-4.7-.3-6.4-1a7 7 0 0 1-3.6-2.9 10 10 0 0 1-1.2-5.2A9 9 0 0 1 251 54c.8-1.3 2-2.4 3.8-3.4 1.8-1 4-1.7 6.9-2.4 2.8-.7 6.2-1.4 10.2-2Zm.6 21-.8-6.9-.6.3V40.7c0-.5 0-1-.3-1.5-.2-.5-.6-.8-1.2-1-.5-.3-1.4-.5-2.5-.5a9 9 0 0 0-4 .7c-1.1.4-1.9.9-2.2 1.4-.5-.2-.8-.4-1-.8 0-.3 0-.6.2-1l1-.9c.6-.2 1.3-.3 2.1-.3v7.5H252v-8.4a33.2 33.2 0 0 1 8.8-3.4 35.2 35.2 0 0 1 15.2-.1c2.1.5 4 1.2 5.4 2.2 1.4 1 2.5 2.1 3.3 3.6a11 11 0 0 1 1 5.1v16.5c0 .4.2.6.3.8.1.2.4.4.7.5l1.3.4.5.1v5.5h-16Zm40.4-8.4c0-.8-.2-1.4-.6-1.8-.4-.5-1-.9-1.7-1.2a14 14 0 0 0-2.5-.7 77.7 77.7 0 0 1-7.2-1.9c-1.5-.4-2.8-1-4-1.8a8.3 8.3 0 0 1-2.8-3.1c-.7-1.3-1-3-1-5 0-2.8.7-5 2.1-6.8 1.5-1.7 3.5-3 6-3.8a42.2 42.2 0 0 1 20.7.4l2.4 1v7.7h-9.8v-6c.8 0 1.4 0 1.8.2.4.2.6.5.6.8v.9c0 .3-.2.6-.3.8a10.8 10.8 0 0 0-3.9-1.1l-2.6-.2c-1.5 0-2.7.2-3.4.6-.7.4-1.1 1-1.1 2 0 .7.2 1.3.6 1.7.3.4.9.7 1.6 1l2.5.7a92.2 92.2 0 0 1 7.7 2c1.5.5 3 1.2 4.2 2 1.3.8 2.3 1.9 3 3.1a9 9 0 0 1 1.2 4.8c0 3-.6 5.5-2 7.3a11.6 11.6 0 0 1-6.2 4.2 43 43 0 0 1-22.6-.4l-3-1.2v-8.5h10v7.7c-1-.2-1.6-.6-2.1-1-.6-.5-.9-1-1-1.4-.2-.5-.2-.8 0-1 .1-.3.4-.3.9 0a25 25 0 0 0 4.3 1.2l3.2.2c1.2 0 2.1-.1 2.9-.3.7-.3 1.2-.6 1.6-1.1a4 4 0 0 0 .5-2Zm15.5-20.4v-5.7h.3l2.4-.2c.6-.2 1.2-.5 1.6-1a4 4 0 0 0 .5-2.2l8.3 3H357v6h-28.4Zm19.4 17.4c0 1.3.1 2.3.5 3 .4.7.9 1.2 1.5 1.5a14 14 0 0 0 5 .2l1.7-.3v6.5a41 41 0 0 1-9.1 1.1c-3 0-5.5-.3-7.6-1a9.7 9.7 0 0 1-5.2-3.4 11 11 0 0 1-1.8-6.8V33.7l.4-.6V22.6H348v33.2Z"/><path fill="#f82" stroke="#f82" stroke-width="10" d="M27.2 58.1c1.5 0 2.7-.1 3.6-.5 1-.3 1.6-.8 2-1.5.5-.7.7-1.5.7-2.6 0-1-.2-1.7-.7-2.4a5.6 5.6 0 0 0-2.2-1.6c-1-.5-2.2-1-3.7-1.4l-5.2-1.4c-1.8-.5-3.6-1.1-5.2-1.8s-3.1-1.6-4.4-2.8a12 12 0 0 1-3-4.3c-.7-1.7-1-3.9-1-6.4 0-3.4.6-6.2 2-8.4 1.5-2.2 3.5-3.8 6-4.9a25 25 0 0 1 16.4-.3 10 10 0 0 1 4.5 3.9c1 1.7 2 4 2.6 6.8l-3.1-2.7 1.5-8.5h5.6v13h-6.7a9.7 9.7 0 0 0-5.6-6.8 12 12 0 0 0-4.7-.9c-1.3 0-2.4.1-3.3.4-.8.3-1.4.8-1.8 1.4-.4.6-.6 1.4-.6 2.3 0 1 .3 1.7.7 2.3a5 5 0 0 0 2 1.6l3.3 1 4.5 1.1c2.1.5 4 1 6 1.7 1.8.7 3.4 1.6 4.8 2.7 1.3 1.1 2.4 2.5 3.2 4.2a16 16 0 0 1 1.2 6.5c0 3.5-.7 6.4-2 8.9a13 13 0 0 1-6 5.6 23 23 0 0 1-10.1 1.9c-3 0-5.6-.4-8-1.2a12 12 0 0 1-5.6-4 19 19 0 0 1-3.2-8l2.7 2.3L13 63H7.1V48.4h7.4a15 15 0 0 0 3 5.6 13 13 0 0 0 9.7 4.1Zm32.5-32.5c-2.5 0-4.4-.5-5.8-1.6-1.4-1.1-2.1-2.7-2.1-4.8 0-2 .7-3.7 2-4.8 1.5-1 3.4-1.6 5.9-1.6 2.5 0 4.4.5 5.8 1.6 1.4 1.1 2 2.7 2 4.8 0 2-.6 3.7-2 4.8a9.1 9.1 0 0 1-5.8 1.6Zm7.7 2.8V55c0 1.2.2 2 .7 2.3a3 3 0 0 0 1.9.7h.1v5H49.8v-5h.1c.8 0 1.5-.3 2-.7.4-.4.6-1.1.6-2.3V35.8c0-.5-.2-.8-.5-1-.4-.3-1-.4-1.7-.6l-.5-.1v-5.7h17.6Zm5.8 34.7v-5h.1a3 3 0 0 0 1.9-.7c.4-.4.7-1.1.7-2.3V35.8c0-.3-.1-.6-.3-.8l-.7-.4a10 10 0 0 0-1.2-.4l-.5-.1v-5.7h16.2l.9 8.4.5-.2v21s0 .2.3.3l.6.1h1v5.1H73.2Zm41.8 0H96.2v-5h1l.7-.2.2-.4V39c0-.7 0-1.2-.2-1.7a2 2 0 0 0-.7-1c-.3-.3-.8-.4-1.4-.4-.6 0-1.3.2-2 .7-.7.5-1.5 1.3-2.3 2.4a32 32 0 0 0-2.5 4.4l.2-6c.8-1.9 2-3.5 3.3-5a13.3 13.3 0 0 1 10.1-4.6c2.2 0 4.1.4 5.7 1.2 1.5.9 2.7 2.1 3.6 3.7a13 13 0 0 1 1.2 6v19l.3.3.7.1h1v5.1Zm23 0h-19.5v-5h1l.7-.2c.2-.1.3-.2.3-.4V39c0-.7-.1-1.2-.3-1.7-.1-.4-.3-.8-.7-1-.3-.3-.7-.4-1.3-.4-.8 0-1.5.2-2.2.8-.7.5-1.4 1.3-2.2 2.4a35 35 0 0 0-2.6 4.2l.3-6a24 24 0 0 1 3.3-5c1.4-1.4 3-2.5 4.7-3.3 1.7-.8 3.5-1.2 5.4-1.2 2.3 0 4.2.4 5.7 1.2 1.6.9 2.7 2.1 3.6 3.7a14 14 0 0 1 1.2 6v16.5c0 1.2.2 2 .6 2.3a3 3 0 0 0 1.9.7h.2v5Zm20.3-34.7v24c0 .6 0 1.2.2 1.7s.4.9.8 1.1c.4.3.9.4 1.5.4.8 0 1.5-.2 2.3-.8a11 11 0 0 0 2.3-2.5c.9-1.2 1.7-2.6 2.6-4.4l-.2 6.2a15.9 15.9 0 0 1-8.1 8.4c-1.8.8-3.7 1.2-5.6 1.2-2.3 0-4.2-.4-5.8-1.2a8.7 8.7 0 0 1-3.7-3.8c-.9-1.6-1.3-3.6-1.3-6V35.8c0-.5-.1-.8-.5-1-.3-.3-.9-.5-1.7-.6l-.6-.1v-5.7h17.8Zm22.8 0v27.4c0 .4.1.6.3.8.1.2.3.4.7.5l1.2.4.5.1v5.5h-16.1l-1-8.2-.5-.4V35.8c0-.5-.3-.9-.9-1.1-.6-.3-1.3-.5-2-.6l-.9-.1v-5.6h18.7Zm23.5-13.8v40.5c0 1.2.3 2 .7 2.3a3 3 0 0 0 1.9.7h.1v5H187v-5h.2c.8 0 1.4-.3 1.8-.7.5-.4.7-1.1.7-2.3V22c0-.3 0-.6-.2-.8l-.7-.5a14 14 0 0 0-1.3-.4l-.5-.1v-5.5h17.6Zm28.9 42.7c1.2 0 2.3-.3 3.3-.9 1-.6 1.9-1.3 2.6-2.3.8-.9 1.4-1.9 2-2.9l4.8 3c-.8 2-2 3.6-3.3 5a14 14 0 0 1-5.1 3.4 25.7 25.7 0 0 1-17.5-.8 16 16 0 0 1-7.2-6c-1.7-2.7-2.6-6-2.6-10.1 0-4 .8-7.2 2.5-9.9 1.6-2.7 4-4.7 7-6 3-1.4 6.7-2 11-2a40.3 40.3 0 0 1 11.4 1.5c1.3.4 2.2.8 2.7 1.2v11.2h-10.8V31.4c.7 0 1.1.2 1.4.5.3.4.5.9.6 1.4v1.4c-.1.5-.3.7-.4.8a5.3 5.3 0 0 0-4-1.5 5 5 0 0 0-3.5 1.2c-1 .8-1.6 2-2 3.8a30.2 30.2 0 0 0-.1 12 10 10 0 0 0 1.3 3.6c.7 1 1.4 1.6 2.4 2 1 .5 2.1.7 3.5.7ZM272 42.2v4.7c-1.5.3-2.7.6-3.8 1-1 .3-1.8.7-2.5 1.2-.6.4-1 .9-1.4 1.4-.4.5-.6 1-.7 1.6a8 8 0 0 0 .1 4.1c.3.6.6 1 1.1 1.2a4 4 0 0 0 3.6 0l1.8-1.6c.6-.7 1.2-1.6 1.8-2.7l.7 3c-.9 1.9-1.8 3.4-2.9 4.5-1 1.1-2.3 2-3.7 2.4-1.4.6-3.1.8-5 .8-2.6 0-4.7-.3-6.4-1a7 7 0 0 1-3.6-2.9 10 10 0 0 1-1.2-5.2A9 9 0 0 1 251 50c.8-1.3 2-2.4 3.8-3.4 1.8-1 4-1.7 6.9-2.4 2.8-.7 6.2-1.4 10.2-2Zm.6 21-.8-6.9-.6.3V36.7c0-.5 0-1-.3-1.5-.2-.5-.6-.8-1.2-1-.5-.3-1.4-.5-2.5-.5a9 9 0 0 0-4 .7c-1.1.4-1.9.9-2.2 1.4-.5-.2-.8-.4-1-.8 0-.3 0-.6.2-1l1-.9c.6-.2 1.3-.3 2.1-.3v7.5H252v-8.4a33.2 33.2 0 0 1 8.8-3.4 35.2 35.2 0 0 1 15.2-.1c2.1.5 4 1.2 5.4 2.2 1.4 1 2.5 2.1 3.3 3.6a11 11 0 0 1 1 5.1v16.5c0 .4.2.6.3.8.1.2.4.4.7.5l1.3.4.5.1v5.5h-16Zm40.4-8.4c0-.8-.2-1.4-.6-1.8-.4-.5-1-.9-1.7-1.2a14 14 0 0 0-2.5-.7 77.7 77.7 0 0 1-7.2-1.9c-1.5-.4-2.8-1-4-1.8a8.3 8.3 0 0 1-2.8-3.1c-.7-1.3-1-3-1-5 0-2.8.7-5 2.1-6.8 1.5-1.7 3.5-3 6-3.8a42.2 42.2 0 0 1 20.7.4l2.4 1v7.7h-9.8v-6c.8 0 1.4 0 1.8.2.4.2.6.5.6.8v.9c0 .3-.2.6-.3.8a10.8 10.8 0 0 0-3.9-1.1l-2.6-.2c-1.5 0-2.7.2-3.4.6-.7.4-1.1 1-1.1 2 0 .7.2 1.3.6 1.7.3.4.9.7 1.6 1l2.5.7a92.2 92.2 0 0 1 7.7 2c1.5.5 3 1.2 4.2 2 1.3.8 2.3 1.9 3 3.1a9 9 0 0 1 1.2 4.8c0 3-.6 5.5-2 7.3a11.6 11.6 0 0 1-6.2 4.2 43 43 0 0 1-22.6-.4l-3-1.2v-8.5h10v7.7c-1-.2-1.6-.6-2.1-1-.6-.5-.9-1-1-1.4-.2-.5-.2-.8 0-1 .1-.3.4-.3.9 0a25 25 0 0 0 4.3 1.2l3.2.2c1.2 0 2.1-.1 2.9-.3.7-.3 1.2-.6 1.6-1.1a4 4 0 0 0 .5-2Zm15.5-20.4v-5.7h.3l2.4-.2c.6-.2 1.2-.5 1.6-1a4 4 0 0 0 .5-2.2l8.3 3H357v6h-28.4Zm19.4 17.4c0 1.3.1 2.3.5 3 .4.7.9 1.2 1.5 1.5a14 14 0 0 0 5 .2l1.7-.3v6.5a41 41 0 0 1-9.1 1.1c-3 0-5.5-.3-7.6-1a9.7 9.7 0 0 1-5.2-3.4 11 11 0 0 1-1.8-6.8V29.7l.4-.6V18.6H348v33.2Z"/><path fill="#fa2" stroke="#fa2" stroke-width="10" d="M27.2 53.1c1.5 0 2.7-.1 3.6-.5 1-.3 1.6-.8 2-1.5.5-.7.7-1.5.7-2.6 0-1-.2-1.7-.7-2.4a5.6 5.6 0 0 0-2.2-1.6c-1-.5-2.2-1-3.7-1.4l-5.2-1.4c-1.8-.5-3.6-1.1-5.2-1.8s-3.1-1.6-4.4-2.8a12 12 0 0 1-3-4.3c-.7-1.7-1-3.9-1-6.4 0-3.4.6-6.2 2-8.4 1.5-2.2 3.5-3.8 6-4.9a25 25 0 0 1 16.4-.3 10 10 0 0 1 4.5 3.9c1 1.7 2 4 2.6 6.8l-3.1-2.7 1.5-8.5h5.6v13h-6.7a9.7 9.7 0 0 0-5.6-6.8 12 12 0 0 0-4.7-.9c-1.3 0-2.4.1-3.3.4-.8.3-1.4.8-1.8 1.4-.4.6-.6 1.4-.6 2.3 0 1 .3 1.7.7 2.3a5 5 0 0 0 2 1.6l3.3 1 4.5 1.1c2.1.5 4 1 6 1.7 1.8.7 3.4 1.6 4.8 2.7 1.3 1.1 2.4 2.5 3.2 4.2a16 16 0 0 1 1.2 6.5c0 3.5-.7 6.4-2 8.9a13 13 0 0 1-6 5.6 23 23 0 0 1-10.1 1.9c-3 0-5.6-.4-8-1.2a12 12 0 0 1-5.6-4 19 19 0 0 1-3.2-8l2.7 2.3L13 58H7.1V43.4h7.4a15 15 0 0 0 3 5.6 13 13 0 0 0 9.7 4.1Zm32.5-32.5c-2.5 0-4.4-.5-5.8-1.6-1.4-1.1-2.1-2.7-2.1-4.8 0-2 .7-3.7 2-4.8 1.5-1 3.4-1.6 5.9-1.6 2.5 0 4.4.5 5.8 1.6 1.4 1.1 2 2.7 2 4.8 0 2-.6 3.7-2 4.8a9.1 9.1 0 0 1-5.8 1.6Zm7.7 2.8V50c0 1.2.2 2 .7 2.3a3 3 0 0 0 1.9.7h.1v5H49.8v-5h.1c.8 0 1.5-.3 2-.7.4-.4.6-1.1.6-2.3V30.8c0-.5-.2-.8-.5-1-.4-.3-1-.4-1.7-.6l-.5-.1v-5.7h17.6Zm5.8 34.7v-5h.1a3 3 0 0 0 1.9-.7c.4-.4.7-1.1.7-2.3V30.8c0-.3-.1-.6-.3-.8l-.7-.4a10 10 0 0 0-1.2-.4l-.5-.1v-5.7h16.2l.9 8.4.5-.2v21s0 .2.3.3l.6.1h1v5.1H73.2Zm41.8 0H96.2v-5h1l.7-.2.2-.4V34c0-.7 0-1.2-.2-1.7a2 2 0 0 0-.7-1c-.3-.3-.8-.4-1.4-.4-.6 0-1.3.2-2 .7-.7.5-1.5 1.3-2.3 2.4a32 32 0 0 0-2.5 4.4l.2-6c.8-1.9 2-3.5 3.3-5a13.3 13.3 0 0 1 10.1-4.6c2.2 0 4.1.4 5.7 1.2 1.5.9 2.7 2.1 3.6 3.7a13 13 0 0 1 1.2 6v19l.3.3.7.1h1v5.1Zm23 0h-19.5v-5h1l.7-.2c.2-.1.3-.2.3-.4V34c0-.7-.1-1.2-.3-1.7-.1-.4-.3-.8-.7-1-.3-.3-.7-.4-1.3-.4-.8 0-1.5.2-2.2.8-.7.5-1.4 1.3-2.2 2.4a35 35 0 0 0-2.6 4.2l.3-6a24 24 0 0 1 3.3-5c1.4-1.4 3-2.5 4.7-3.3 1.7-.8 3.5-1.2 5.4-1.2 2.3 0 4.2.4 5.7 1.2 1.6.9 2.7 2.1 3.6 3.7a14 14 0 0 1 1.2 6v16.5c0 1.2.2 2 .6 2.3a3 3 0 0 0 1.9.7h.2v5Zm20.3-34.7v24c0 .6 0 1.2.2 1.7s.4.9.8 1.1c.4.3.9.4 1.5.4.8 0 1.5-.2 2.3-.8a11 11 0 0 0 2.3-2.5c.9-1.2 1.7-2.6 2.6-4.4l-.2 6.2a15.9 15.9 0 0 1-8.1 8.4c-1.8.8-3.7 1.2-5.6 1.2-2.3 0-4.2-.4-5.8-1.2a8.7 8.7 0 0 1-3.7-3.8c-.9-1.6-1.3-3.6-1.3-6V30.8c0-.5-.1-.8-.5-1-.3-.3-.9-.5-1.7-.6l-.6-.1v-5.7h17.8Zm22.8 0v27.4c0 .4.1.6.3.8.1.2.3.4.7.5l1.2.4.5.1v5.5h-16.1l-1-8.2-.5-.4V30.8c0-.5-.3-.9-.9-1.1-.6-.3-1.3-.5-2-.6l-.9-.1v-5.6h18.7Zm23.5-13.8v40.5c0 1.2.3 2 .7 2.3a3 3 0 0 0 1.9.7h.1v5H187v-5h.2c.8 0 1.4-.3 1.8-.7.5-.4.7-1.1.7-2.3V17c0-.3 0-.6-.2-.8l-.7-.5a14 14 0 0 0-1.3-.4l-.5-.1V9.6h17.6Zm28.9 42.7c1.2 0 2.3-.3 3.3-.9 1-.6 1.9-1.3 2.6-2.3.8-.9 1.4-1.9 2-2.9l4.8 3c-.8 2-2 3.6-3.3 5a14 14 0 0 1-5.1 3.4 25.7 25.7 0 0 1-17.5-.8 16 16 0 0 1-7.2-6c-1.7-2.7-2.6-6-2.6-10.1 0-4 .8-7.2 2.5-9.9 1.6-2.7 4-4.7 7-6 3-1.4 6.7-2 11-2a40.3 40.3 0 0 1 11.4 1.5c1.3.4 2.2.8 2.7 1.2v11.2h-10.8V26.4c.7 0 1.1.2 1.4.5.3.4.5.9.6 1.4v1.4c-.1.5-.3.7-.4.8a5.3 5.3 0 0 0-4-1.5 5 5 0 0 0-3.5 1.2c-1 .8-1.6 2-2 3.8a30.2 30.2 0 0 0-.1 12 10 10 0 0 0 1.3 3.6c.7 1 1.4 1.6 2.4 2 1 .5 2.1.7 3.5.7ZM272 37.2v4.7c-1.5.3-2.7.6-3.8 1-1 .3-1.8.7-2.5 1.2-.6.4-1 .9-1.4 1.4-.4.5-.6 1-.7 1.6a8 8 0 0 0 .1 4.1c.3.6.6 1 1.1 1.2a4 4 0 0 0 3.6 0l1.8-1.6c.6-.7 1.2-1.6 1.8-2.7l.7 3c-.9 1.9-1.8 3.4-2.9 4.5-1 1.1-2.3 2-3.7 2.4-1.4.6-3.1.8-5 .8-2.6 0-4.7-.3-6.4-1a7 7 0 0 1-3.6-2.9 10 10 0 0 1-1.2-5.2A9 9 0 0 1 251 45c.8-1.3 2-2.4 3.8-3.4 1.8-1 4-1.7 6.9-2.4 2.8-.7 6.2-1.4 10.2-2Zm.6 21-.8-6.9-.6.3V31.7c0-.5 0-1-.3-1.5-.2-.5-.6-.8-1.2-1-.5-.3-1.4-.5-2.5-.5a9 9 0 0 0-4 .7c-1.1.4-1.9.9-2.2 1.4-.5-.2-.8-.4-1-.8 0-.3 0-.6.2-1l1-.9c.6-.2 1.3-.3 2.1-.3v7.5H252v-8.4a33.2 33.2 0 0 1 8.8-3.4 35.2 35.2 0 0 1 15.2-.1c2.1.5 4 1.2 5.4 2.2 1.4 1 2.5 2.1 3.3 3.6a11 11 0 0 1 1 5.1v16.5c0 .4.2.6.3.8.1.2.4.4.7.5l1.3.4.5.1v5.5h-16Zm40.4-8.4c0-.8-.2-1.4-.6-1.8-.4-.5-1-.9-1.7-1.2a14 14 0 0 0-2.5-.7 77.7 77.7 0 0 1-7.2-1.9c-1.5-.4-2.8-1-4-1.8a8.3 8.3 0 0 1-2.8-3.1c-.7-1.3-1-3-1-5 0-2.8.7-5 2.1-6.8 1.5-1.7 3.5-3 6-3.8a42.2 42.2 0 0 1 20.7.4l2.4 1v7.7h-9.8v-6c.8 0 1.4 0 1.8.2.4.2.6.5.6.8v.9c0 .3-.2.6-.3.8a10.8 10.8 0 0 0-3.9-1.1l-2.6-.2c-1.5 0-2.7.2-3.4.6-.7.4-1.1 1-1.1 2 0 .7.2 1.3.6 1.7.3.4.9.7 1.6 1l2.5.7a92.2 92.2 0 0 1 7.7 2c1.5.5 3 1.2 4.2 2 1.3.8 2.3 1.9 3 3.1a9 9 0 0 1 1.2 4.8c0 3-.6 5.5-2 7.3a11.6 11.6 0 0 1-6.2 4.2 43 43 0 0 1-22.6-.4l-3-1.2v-8.5h10v7.7c-1-.2-1.6-.6-2.1-1-.6-.5-.9-1-1-1.4-.2-.5-.2-.8 0-1 .1-.3.4-.3.9 0a25 25 0 0 0 4.3 1.2l3.2.2c1.2 0 2.1-.1 2.9-.3.7-.3 1.2-.6 1.6-1.1a4 4 0 0 0 .5-2Zm15.5-20.4v-5.7h.3l2.4-.2c.6-.2 1.2-.5 1.6-1a4 4 0 0 0 .5-2.2l8.3 3H357v6h-28.4Zm19.4 17.4c0 1.3.1 2.3.5 3 .4.7.9 1.2 1.5 1.5a14 14 0 0 0 5 .2l1.7-.3v6.5a41 41 0 0 1-9.1 1.1c-3 0-5.5-.3-7.6-1a9.7 9.7 0 0 1-5.2-3.4 11 11 0 0 1-1.8-6.8V24.7l.4-.6V13.6H348v33.2Z"/><path fill="#fff" d="M27.2 53.1c1.5 0 2.7-.1 3.6-.5 1-.3 1.6-.8 2-1.5.5-.7.7-1.5.7-2.6 0-1-.2-1.7-.7-2.4a5.6 5.6 0 0 0-2.2-1.6c-1-.5-2.2-1-3.7-1.4l-5.2-1.4c-1.8-.5-3.6-1.1-5.2-1.8s-3.1-1.6-4.4-2.8a12 12 0 0 1-3-4.3c-.7-1.7-1-3.9-1-6.4 0-3.4.6-6.2 2-8.4 1.5-2.2 3.5-3.8 6-4.9a25 25 0 0 1 16.4-.3 10 10 0 0 1 4.5 3.9c1 1.7 2 4 2.6 6.8l-3.1-2.7 1.5-8.5h5.6v13h-6.7a9.7 9.7 0 0 0-5.6-6.8 12 12 0 0 0-4.7-.9c-1.3 0-2.4.1-3.3.4-.8.3-1.4.8-1.8 1.4-.4.6-.6 1.4-.6 2.3 0 1 .3 1.7.7 2.3a5 5 0 0 0 2 1.6l3.3 1 4.5 1.1c2.1.5 4 1 6 1.7 1.8.7 3.4 1.6 4.8 2.7 1.3 1.1 2.4 2.5 3.2 4.2a16 16 0 0 1 1.2 6.5c0 3.5-.7 6.4-2 8.9a13 13 0 0 1-6 5.6 23 23 0 0 1-10.1 1.9c-3 0-5.6-.4-8-1.2a12 12 0 0 1-5.6-4 19 19 0 0 1-3.2-8l2.7 2.3L13 58H7.1V43.4h7.4a15 15 0 0 0 3 5.6 13 13 0 0 0 9.7 4.1Zm32.5-32.5c-2.5 0-4.4-.5-5.8-1.6-1.4-1.1-2.1-2.7-2.1-4.8 0-2 .7-3.7 2-4.8 1.5-1 3.4-1.6 5.9-1.6 2.5 0 4.4.5 5.8 1.6 1.4 1.1 2 2.7 2 4.8 0 2-.6 3.7-2 4.8a9.1 9.1 0 0 1-5.8 1.6Zm7.7 2.8V50c0 1.2.2 2 .7 2.3a3 3 0 0 0 1.9.7h.1v5H49.8v-5h.1c.8 0 1.5-.3 2-.7.4-.4.6-1.1.6-2.3V30.8c0-.5-.2-.8-.5-1-.4-.3-1-.4-1.7-.6l-.5-.1v-5.7h17.6Zm5.8 34.7v-5h.1a3 3 0 0 0 1.9-.7c.4-.4.7-1.1.7-2.3V30.8c0-.3-.1-.6-.3-.8l-.7-.4a10 10 0 0 0-1.2-.4l-.5-.1v-5.7h16.2l.9 8.4.5-.2v21s0 .2.3.3l.6.1h1v5.1H73.2Zm41.8 0H96.2v-5h1l.7-.2.2-.4V34c0-.7 0-1.2-.2-1.7a2 2 0 0 0-.7-1c-.3-.3-.8-.4-1.4-.4-.6 0-1.3.2-2 .7-.7.5-1.5 1.3-2.3 2.4a32 32 0 0 0-2.5 4.4l.2-6c.8-1.9 2-3.5 3.3-5a13.3 13.3 0 0 1 10.1-4.6c2.2 0 4.1.4 5.7 1.2 1.5.9 2.7 2.1 3.6 3.7a13 13 0 0 1 1.2 6v19l.3.3.7.1h1v5.1Zm23 0h-19.5v-5h1l.7-.2c.2-.1.3-.2.3-.4V34c0-.7-.1-1.2-.3-1.7-.1-.4-.3-.8-.7-1-.3-.3-.7-.4-1.3-.4-.8 0-1.5.2-2.2.8-.7.5-1.4 1.3-2.2 2.4a35 35 0 0 0-2.6 4.2l.3-6a24 24 0 0 1 3.3-5c1.4-1.4 3-2.5 4.7-3.3 1.7-.8 3.5-1.2 5.4-1.2 2.3 0 4.2.4 5.7 1.2 1.6.9 2.7 2.1 3.6 3.7a14 14 0 0 1 1.2 6v16.5c0 1.2.2 2 .6 2.3a3 3 0 0 0 1.9.7h.2v5Zm20.3-34.7v24c0 .6 0 1.2.2 1.7s.4.9.8 1.1c.4.3.9.4 1.5.4.8 0 1.5-.2 2.3-.8a11 11 0 0 0 2.3-2.5c.9-1.2 1.7-2.6 2.6-4.4l-.2 6.2a15.9 15.9 0 0 1-8.1 8.4c-1.8.8-3.7 1.2-5.6 1.2-2.3 0-4.2-.4-5.8-1.2a8.7 8.7 0 0 1-3.7-3.8c-.9-1.6-1.3-3.6-1.3-6V30.8c0-.5-.1-.8-.5-1-.3-.3-.9-.5-1.7-.6l-.6-.1v-5.7h17.8Zm22.8 0v27.4c0 .4.1.6.3.8.1.2.3.4.7.5l1.2.4.5.1v5.5h-16.1l-1-8.2-.5-.4V30.8c0-.5-.3-.9-.9-1.1-.6-.3-1.3-.5-2-.6l-.9-.1v-5.6h18.7Zm23.5-13.8v40.5c0 1.2.3 2 .7 2.3a3 3 0 0 0 1.9.7h.1v5H187v-5h.2c.8 0 1.4-.3 1.8-.7.5-.4.7-1.1.7-2.3V17c0-.3 0-.6-.2-.8l-.7-.5a14 14 0 0 0-1.3-.4l-.5-.1V9.6h17.6Zm28.9 42.7c1.2 0 2.3-.3 3.3-.9 1-.6 1.9-1.3 2.6-2.3.8-.9 1.4-1.9 2-2.9l4.8 3c-.8 2-2 3.6-3.3 5a14 14 0 0 1-5.1 3.4 25.7 25.7 0 0 1-17.5-.8 16 16 0 0 1-7.2-6c-1.7-2.7-2.6-6-2.6-10.1 0-4 .8-7.2 2.5-9.9 1.6-2.7 4-4.7 7-6 3-1.4 6.7-2 11-2a40.3 40.3 0 0 1 11.4 1.5c1.3.4 2.2.8 2.7 1.2v11.2h-10.8V26.4c.7 0 1.1.2 1.4.5.3.4.5.9.6 1.4v1.4c-.1.5-.3.7-.4.8a5.3 5.3 0 0 0-4-1.5 5 5 0 0 0-3.5 1.2c-1 .8-1.6 2-2 3.8a30.2 30.2 0 0 0-.1 12 10 10 0 0 0 1.3 3.6c.7 1 1.4 1.6 2.4 2 1 .5 2.1.7 3.5.7ZM272 37.2v4.7c-1.5.3-2.7.6-3.8 1-1 .3-1.8.7-2.5 1.2-.6.4-1 .9-1.4 1.4-.4.5-.6 1-.7 1.6a8 8 0 0 0 .1 4.1c.3.6.6 1 1.1 1.2a4 4 0 0 0 3.6 0l1.8-1.6c.6-.7 1.2-1.6 1.8-2.7l.7 3c-.9 1.9-1.8 3.4-2.9 4.5-1 1.1-2.3 2-3.7 2.4-1.4.6-3.1.8-5 .8-2.6 0-4.7-.3-6.4-1a7 7 0 0 1-3.6-2.9 10 10 0 0 1-1.2-5.2A9 9 0 0 1 251 45c.8-1.3 2-2.4 3.8-3.4 1.8-1 4-1.7 6.9-2.4 2.8-.7 6.2-1.4 10.2-2Zm.6 21-.8-6.9-.6.3V31.7c0-.5 0-1-.3-1.5-.2-.5-.6-.8-1.2-1-.5-.3-1.4-.5-2.5-.5a9 9 0 0 0-4 .7c-1.1.4-1.9.9-2.2 1.4-.5-.2-.8-.4-1-.8 0-.3 0-.6.2-1l1-.9c.6-.2 1.3-.3 2.1-.3v7.5H252v-8.4a33.2 33.2 0 0 1 8.8-3.4 35.2 35.2 0 0 1 15.2-.1c2.1.5 4 1.2 5.4 2.2 1.4 1 2.5 2.1 3.3 3.6a11 11 0 0 1 1 5.1v16.5c0 .4.2.6.3.8.1.2.4.4.7.5l1.3.4.5.1v5.5h-16Zm40.4-8.4c0-.8-.2-1.4-.6-1.8-.4-.5-1-.9-1.7-1.2a14 14 0 0 0-2.5-.7 77.7 77.7 0 0 1-7.2-1.9c-1.5-.4-2.8-1-4-1.8a8.3 8.3 0 0 1-2.8-3.1c-.7-1.3-1-3-1-5 0-2.8.7-5 2.1-6.8 1.5-1.7 3.5-3 6-3.8a42.2 42.2 0 0 1 20.7.4l2.4 1v7.7h-9.8v-6c.8 0 1.4 0 1.8.2.4.2.6.5.6.8v.9c0 .3-.2.6-.3.8a10.8 10.8 0 0 0-3.9-1.1l-2.6-.2c-1.5 0-2.7.2-3.4.6-.7.4-1.1 1-1.1 2 0 .7.2 1.3.6 1.7.3.4.9.7 1.6 1l2.5.7a92.2 92.2 0 0 1 7.7 2c1.5.5 3 1.2 4.2 2 1.3.8 2.3 1.9 3 3.1a9 9 0 0 1 1.2 4.8c0 3-.6 5.5-2 7.3a11.6 11.6 0 0 1-6.2 4.2 43 43 0 0 1-22.6-.4l-3-1.2v-8.5h10v7.7c-1-.2-1.6-.6-2.1-1-.6-.5-.9-1-1-1.4-.2-.5-.2-.8 0-1 .1-.3.4-.3.9 0a25 25 0 0 0 4.3 1.2l3.2.2c1.2 0 2.1-.1 2.9-.3.7-.3 1.2-.6 1.6-1.1a4 4 0 0 0 .5-2Zm15.5-20.4v-5.7h.3l2.4-.2c.6-.2 1.2-.5 1.6-1a4 4 0 0 0 .5-2.2l8.3 3H357v6h-28.4Zm19.4 17.4c0 1.3.1 2.3.5 3 .4.7.9 1.2 1.5 1.5a14 14 0 0 0 5 .2l1.7-.3v6.5a41 41 0 0 1-9.1 1.1c-3 0-5.5-.3-7.6-1a9.7 9.7 0 0 1-5.2-3.4 11 11 0 0 1-1.8-6.8V24.7l.4-.6V13.6H348v33.2Z"/></g><g fill-rule="nonzero"><path fill="#42b883" d="M413.4 12.3 406 25l-7.4-12.8H374l32 55.4 32-55.4h-24.6Z"/><path fill="#35495e" d="M413.4 12.3 406 25l-7.4-12.8h-11.8L406 45.5l19.2-33.2h-11.8Z"/></g></svg>