<svg fill="none" stroke-linecap="round" stroke-linejoin="round" stroke="#b1f" viewBox="0 0 185 36" xmlns="http://www.w3.org/2000/svg"><path d="M26.5 1.5h-4v3h4-4v3h4m-7-6-2 6-2-6m-4 0a1 1 0 0 1 1 1v4a1 1 0 0 1-1 1h-2a1 1 0 0 1-1-1v-4a1 1 0 0 1 1-1h2Zm-6 0h-3a1 1 0 0 0-1 1v4a1 1 0 0 0 1 1h3m24 0v-6l4 6v-6M26.5 4.5h-4v3h4-4v3h4m3 0v-6l4 6v-6m7 0h-3a1 1 0 0 0-1 1v4a1 1 0 0 0 1 1h3v-3m3-3v6m3 0v-6l4 6v-6m7 0h-4v3h4-4v3h4m7-6h-4v3h4-4v3h4m3 0v-6h3a1 1 0 0 1 1 1v1a1 1 0 0 1-1 1h-3 2l2 3m3-6v6m3 0v-6l4 6v-6m7 0h-3a1 1 0 0 0-1 1v4a1 1 0 0 0 1 1h3v-3"/><path stroke-width="3" d="M77.5 15.5h-9a3 3 0 0 0-3 3v3a3 3 0 0 0 3 3h6a3 3 0 0 1 3 3v3a3 3 0 0 1-3 3h-9m117-18h-9a3 3 0 0 0-3 3v3a3 3 0 0 0 3 3h6a3 3 0 0 1 3 3v3a3 3 0 0 1-3 3h-9m-84-18h12-6v18m15 0v-15a3 3 0 0 1 3-3h6a3 3 0 0 1 3 3v6h-12 12v9m30-18h12-6v18m-141-18h-9a3 3 0 0 0-3 3v12a3 3 0 0 0 3 3h9m12-18a3 3 0 0 0-3 3v12a3 3 0 0 0 3 3h6a3 3 0 0 0 3-3v-12a3 3 0 0 0-3-3h-6Zm18 18v-18l12 18v-18m72 18v-18l12 18v-18"/></svg>