<svg fill="none" stroke-linecap="round" stroke-linejoin="round" stroke="#000" viewBox="0 0 90 12" xmlns="http://www.w3.org/2000/svg"><style>@media(prefers-color-scheme:dark){path{stroke:#fff}}@keyframes fade-in{to{opacity:1;transform:translateY(0)}}path{animation:1s ease-out forwards fade-in;opacity:0}#coven{transform:translateY(1.5px)}#engineering{transform:translateY(-1.5px)}</style><path id="coven" d="M26.5 1.5h-4v3h4-4v3h4m-7-6-2 6-2-6m-4 0a1 1 0 0 1 1 1v4a1 1 0 0 1-1 1h-2a1 1 0 0 1-1-1v-4a1 1 0 0 1 1-1h2Zm-6 0h-3a1 1 0 0 0-1 1v4a1 1 0 0 0 1 1h3m24 0v-6l4 6v-6"/><path id="engineering" d="M26.5 4.5h-4v3h4-4v3h4m3 0v-6l4 6v-6m7 0h-3a1 1 0 0 0-1 1v4a1 1 0 0 0 1 1h3v-3m3-3v6m3 0v-6l4 6v-6m7 0h-4v3h4-4v3h4m7-6h-4v3h4-4v3h4m3 0v-6h3a1 1 0 0 1 1 1v1a1 1 0 0 1-1 1h-3 2l2 3m3-6v6m3 0v-6l4 6v-6m7 0h-3a1 1 0 0 0-1 1v4a1 1 0 0 0 1 1h3v-3"/></svg>