<svg fill="none" stroke-linecap="round" stroke-linejoin="round" stroke="#b1f" viewBox="0 0 152 36" xmlns="http://www.w3.org/2000/svg"><path d="M116.5 33.5v-15a3 3 0 0 1 3-3h6a3 3 0 0 1 3 3v6h-12 12v9M65.5 33.5v-18l6 9 6-9v18m9 0v-18m9 18v-18l12 18v-18m30 0v18h12m-105-9h9a3 3 0 0 0 3-3v-3a3 3 0 0 0-3-3h-9v18m0-9h6l6 9m-21-18h-12v9h12-12v9h12m-27 0v-18h-6 12" stroke-width="3"/><path d="M26.5 1.5h-4v3h4-4v3h4m-7-6-2 6-2-6m-4 0a1 1 0 0 1 1 1v4a1 1 0 0 1-1 1h-2a1 1 0 0 1-1-1v-4a1 1 0 0 1 1-1h2Zm-6 0h-3a1 1 0 0 0-1 1v4a1 1 0 0 0 1 1h3m24 0v-6l4 6v-6M26.5 4.5h-4v3h4-4v3h4m3 0v-6l4 6v-6m7 0h-3a1 1 0 0 0-1 1v4a1 1 0 0 0 1 1h3v-3m3-3v6m3 0v-6l4 6v-6m7 0h-4v3h4-4v3h4m7-6h-4v3h4-4v3h4m3 0v-6h3c.6 0 1 .4 1 1v1c0 .6-.4 1-1 1h-3 2l2 3m3-6v6m3 0v-6l4 6v-6m7 0h-3a1 1 0 0 0-1 1v4a1 1 0 0 0 1 1h3v-3"/></svg>