<svg xmlns="http://www.w3.org/2000/svg" xml:space="preserve" fill-rule="evenodd" stroke-linecap="round" stroke-linejoin="round" stroke-miterlimit="2" clip-rule="evenodd" viewBox="0 0 364 80"><g fill-rule="nonzero"><path fill="#a37" stroke="#a37" stroke-width="10" d="M27.15 66.12c1.54 0 2.77-.16 3.68-.48a3.71 3.71 0 0 0 2.02-1.5c.42-.7.64-1.57.64-2.63a3.9 3.9 0 0 0-.7-2.37 5.64 5.64 0 0 0-2.18-1.66c-.98-.47-2.21-.92-3.68-1.35-1.47-.43-3.21-.9-5.22-1.4a41.64 41.64 0 0 1-5.21-1.83 15.8 15.8 0 0 1-4.39-2.78 11.91 11.91 0 0 1-3-4.32A16.67 16.67 0 0 1 8 39.36c0-3.37.72-6.15 2.15-8.35a12.82 12.82 0 0 1 5.98-4.9 23.17 23.17 0 0 1 8.96-1.6c3.03 0 5.5.43 7.4 1.29a9.94 9.94 0 0 1 4.48 3.9 22.42 22.42 0 0 1 2.59 6.78L36.5 33.8l1.47-8.45h5.63v12.93h-6.72a10.4 10.4 0 0 0-2.11-4.16 9.65 9.65 0 0 0-3.52-2.63c-1.37-.6-2.9-.9-4.61-.9-1.37 0-2.48.15-3.33.45a3.3 3.3 0 0 0-1.82 1.35 4.3 4.3 0 0 0-.55 2.3c0 .94.23 1.72.68 2.34a4.9 4.9 0 0 0 2.01 1.53c.9.4 2 .77 3.3 1.1l4.51 1.05a44.2 44.2 0 0 1 5.89 1.73c1.83.68 3.44 1.57 4.83 2.68a11.48 11.48 0 0 1 3.26 4.23c.8 1.7 1.19 3.86 1.19 6.46 0 3.46-.66 6.41-1.99 8.87a12.92 12.92 0 0 1-6.01 5.6c-2.69 1.28-6.06 1.92-10.11 1.92a24 24 0 0 1-7.9-1.19 12 12 0 0 1-5.67-4.06c-1.5-1.92-2.58-4.59-3.27-8l2.76 2.3-1.48 9.86H7.12V56.39h7.42c.73 2.3 1.73 4.17 3.01 5.6a11.68 11.68 0 0 0 4.42 3.13c1.66.66 3.39 1 5.18 1ZM59.66 33.6c-2.47 0-4.4-.54-5.79-1.63-1.38-1.09-2.08-2.68-2.08-4.77 0-2.09.7-3.68 2.08-4.76 1.39-1.1 3.32-1.64 5.8-1.64 2.51 0 4.45.55 5.82 1.64 1.36 1.08 2.05 2.67 2.05 4.76 0 2.1-.69 3.68-2.05 4.77-1.37 1.09-3.3 1.63-5.83 1.63Zm7.75 2.76V63.1c0 1.15.23 1.93.7 2.33.47.4 1.09.61 1.86.61h.13v5.06H49.8v-5.06h.14c.8 0 1.44-.2 1.88-.6.45-.41.68-1.19.68-2.34V43.84c0-.5-.18-.87-.52-1.08-.34-.22-.9-.4-1.66-.58l-.51-.13v-5.7h17.6Zm5.76 34.74v-5.05h.13c.8 0 1.44-.2 1.88-.6.45-.41.68-1.19.68-2.34V43.84c0-.34-.08-.6-.23-.8a1.66 1.66 0 0 0-.7-.48 9.96 9.96 0 0 0-1.25-.38l-.51-.13v-5.7h16.25l.84 8.45.5-.19v20.93c0 .13.1.24.3.32.19.09.41.14.67.16.25.02.96.03.96.03v5.06H73.17Zm41.85 0H96.21v-5.05s.71 0 .99-.03c.28-.02.5-.07.67-.16.17-.08.26-.2.26-.32V46.92a6.3 6.3 0 0 0-.2-1.7c-.12-.45-.36-.8-.7-1.06a2.3 2.3 0 0 0-1.4-.38 3.7 3.7 0 0 0-2.05.74 9.48 9.48 0 0 0-2.28 2.4 31.95 31.95 0 0 0-2.52 4.41l.19-6.01a18.24 18.24 0 0 1 3.33-5 15.67 15.67 0 0 1 4.64-3.42 12.46 12.46 0 0 1 5.47-1.25c2.22 0 4.1.43 5.66 1.28a8.6 8.6 0 0 1 3.59 3.71 13.08 13.08 0 0 1 1.24 6.02v18.88c0 .13.1.24.3.32.18.09.42.14.7.16.27.02.92.03.92.03v5.06Zm23.04 0h-19.52v-5.05s.7 0 .96-.03a2 2 0 0 0 .68-.16c.19-.08.28-.2.28-.32V46.92c0-.69-.07-1.25-.22-1.7a2.2 2.2 0 0 0-.7-1.06 2.16 2.16 0 0 0-1.38-.38c-.73 0-1.44.27-2.14.8-.7.53-1.46 1.34-2.24 2.43a34.8 34.8 0 0 0-2.53 4.2l.25-5.96a18.24 18.24 0 0 1 3.33-4.99 15.2 15.2 0 0 1 4.64-3.4 12.72 12.72 0 0 1 5.47-1.2c2.22 0 4.11.42 5.67 1.27a8.42 8.42 0 0 1 3.55 3.71 13.37 13.37 0 0 1 1.22 6.02v16.45c0 1.15.22 1.93.67 2.33.45.4 1.05.61 1.82.61h.2v5.06Zm20.23-34.74v24c0 .68.07 1.27.22 1.76s.42.86.8 1.12c.39.25.88.38 1.47.38.77 0 1.53-.27 2.28-.8a11 11 0 0 0 2.36-2.53c.84-1.15 1.7-2.62 2.6-4.41l-.26 6.27a15.89 15.89 0 0 1-8.1 8.38 13.3 13.3 0 0 1-5.6 1.22 12.2 12.2 0 0 1-5.79-1.28 8.66 8.66 0 0 1-3.68-3.75 12.85 12.85 0 0 1-1.28-5.98v-16.9c0-.5-.16-.88-.48-1.12a4.1 4.1 0 0 0-1.7-.54l-.63-.13v-5.7h17.79Zm22.85 0V63.8c0 .34.07.61.22.8.15.2.38.34.7.45l1.25.42.45.12v5.5H167.7l-.96-8.25-.58-.32V43.84c0-.5-.29-.9-.86-1.15a8.34 8.34 0 0 0-2.02-.57l-.83-.13v-5.63h18.69Zm23.48-13.76v40.5c0 1.16.24 1.94.7 2.34.48.4 1.1.61 1.86.61h.13v5.06h-20.29v-5.06h.13c.81 0 1.44-.2 1.89-.6.45-.41.67-1.19.67-2.34V29.89c0-.34-.07-.6-.22-.8a1.7 1.7 0 0 0-.74-.48 14 14 0 0 0-1.21-.38l-.52-.13v-5.5h17.6Zm28.87 42.68c1.23 0 2.34-.28 3.33-.86a9.35 9.35 0 0 0 2.59-2.27 19.3 19.3 0 0 0 1.95-2.95l4.86 2.95a17.32 17.32 0 0 1-3.36 5.12 14.04 14.04 0 0 1-5.08 3.36c-2 .79-4.36 1.18-7.04 1.18-3.97 0-7.47-.67-10.5-2.01a15.98 15.98 0 0 1-7.14-6.05c-1.72-2.69-2.59-6.04-2.59-10.05 0-3.93.82-7.22 2.47-9.89a15.42 15.42 0 0 1 7.04-6.05c3.05-1.36 6.73-2.04 11.04-2.04 2.51 0 4.72.16 6.62.48 1.9.32 3.48.69 4.74 1.12 1.25.42 2.16.8 2.72 1.15v11.2h-10.82V39.43c.64-.05 1.1.13 1.4.51a3.46 3.46 0 0 1 .55 2.78c-.1.45-.24.72-.41.8a5.28 5.28 0 0 0-3.97-1.54c-1.45 0-2.63.41-3.52 1.22-.9.81-1.55 2.08-1.95 3.81a30.5 30.5 0 0 0-.61 6.69c0 2.1.15 3.87.45 5.34a9.9 9.9 0 0 0 1.37 3.59 5.53 5.53 0 0 0 2.37 2.01 8.5 8.5 0 0 0 3.49.64Zm38.53-15.1v4.67c-1.5.3-2.76.63-3.78 1a10.4 10.4 0 0 0-2.5 1.21 4.65 4.65 0 0 0-2.17 3 8.1 8.1 0 0 0-.2 1.77c0 1.02.12 1.82.36 2.4.23.57.6.98 1.09 1.21a4.04 4.04 0 0 0 3.58-.12 6.82 6.82 0 0 0 1.76-1.5c.6-.7 1.22-1.6 1.86-2.76l.64 3a16.16 16.16 0 0 1-2.85 4.55 9.38 9.38 0 0 1-3.71 2.43 15.1 15.1 0 0 1-5.1.77c-2.5 0-4.6-.32-6.26-.96a7.05 7.05 0 0 1-3.68-2.94 10.03 10.03 0 0 1-1.19-5.19c0-1.87.4-3.47 1.22-4.8a9.76 9.76 0 0 1 3.84-3.39 30.15 30.15 0 0 1 6.85-2.46 98.9 98.9 0 0 1 10.24-1.89Zm.57 20.93-.77-6.79-.57.32v-19.9c0-.56-.1-1.07-.32-1.54a2.16 2.16 0 0 0-1.19-1.08 6.69 6.69 0 0 0-2.59-.39c-1.62 0-2.96.21-4.03.64-1.07.43-1.77.9-2.11 1.41-.47-.17-.78-.42-.93-.74-.15-.32-.12-.66.1-1.02.2-.36.57-.66 1.08-.9.52-.23 1.2-.33 2.05-.28v7.42h-11.33v-8.32a28.82 28.82 0 0 1 8.77-3.49 35.2 35.2 0 0 1 8-.8c2.73 0 5.15.25 7.27.74 2.1.49 3.89 1.21 5.34 2.17a9.53 9.53 0 0 1 3.3 3.62 11.04 11.04 0 0 1 1.12 5.12v16.51c0 .34.07.61.22.8.15.2.38.34.7.45l1.25.42.51.12v5.5H272.6Zm40.39-8.32c0-.77-.2-1.38-.61-1.83-.4-.44-.97-.82-1.7-1.12a14 14 0 0 0-2.46-.73 77.67 77.67 0 0 1-7.23-1.89 17.11 17.11 0 0 1-3.94-1.86 8.33 8.33 0 0 1-2.85-3.1 10.2 10.2 0 0 1-1.05-4.9c0-2.85.72-5.15 2.17-6.88a12.38 12.38 0 0 1 6.02-3.77c2.56-.8 5.5-1.19 8.83-1.19 2.77 0 5.14.17 7.1.52 1.97.34 3.55.71 4.74 1.12 1.2.4 1.98.71 2.37.92v7.68h-9.73v-5.88a3.21 3.21 0 0 1 1.73.16c.38.19.6.43.67.73.06.3.05.61-.03.93-.09.32-.2.59-.32.8a10.8 10.8 0 0 0-1.73-.67c-.64-.2-1.34-.34-2.11-.45a19.2 19.2 0 0 0-2.63-.16 7.8 7.8 0 0 0-3.42.58c-.75.38-1.12 1.06-1.12 2.04 0 .69.2 1.23.58 1.64.38.4.94.73 1.66.99.72.25 1.57.49 2.53.7a92.17 92.17 0 0 1 7.68 2.08 18.9 18.9 0 0 1 4.19 1.95 9.39 9.39 0 0 1 3.07 3.14 9.06 9.06 0 0 1 1.15 4.74c0 3.02-.67 5.48-2.01 7.36-1.35 1.87-3.41 3.25-6.21 4.12-2.8.88-6.3 1.32-10.53 1.32-2.56 0-4.87-.18-6.94-.52a32.4 32.4 0 0 1-5.15-1.21 26.5 26.5 0 0 1-2.95-1.15v-8.52h9.92v7.75c-.9-.26-1.6-.62-2.11-1.09a3.77 3.77 0 0 1-1.02-1.38c-.18-.44-.18-.79 0-1.02.17-.23.49-.22.96.03.5.21 1.13.44 1.85.67.73.24 1.56.42 2.5.55.94.13 1.98.19 3.13.19 1.2 0 2.16-.1 2.88-.32a2.77 2.77 0 0 0 1.6-1.09 3.5 3.5 0 0 0 .52-1.98Zm15.48-20.42v-5.7h.39c.9 0 1.67-.07 2.33-.22a2.73 2.73 0 0 0 1.57-.93c.39-.46.58-1.2.58-2.17l8.32 3h15.23v6.02h-28.42Zm19.4 17.41c0 1.32.18 2.34.54 3.04.36.7.88 1.18 1.54 1.44s1.48.38 2.46.38a14 14 0 0 0 2.6-.22c.78-.15 1.3-.22 1.56-.22v6.46a30.8 30.8 0 0 1-5.18.96c-1.2.13-2.5.2-3.9.2-2.9 0-5.45-.34-7.62-1a9.74 9.74 0 0 1-5.12-3.46c-1.24-1.64-1.86-3.89-1.86-6.75V37.7l.45-.58v-10.5h14.53v33.16Z"/><path fill="#e56" stroke="#e56" stroke-width="10" d="M27.15 62.12c1.54 0 2.77-.16 3.68-.48a3.71 3.71 0 0 0 2.02-1.5 5 5 0 0 0 .64-2.63 3.9 3.9 0 0 0-.7-2.37 5.64 5.64 0 0 0-2.18-1.66c-.98-.47-2.21-.92-3.68-1.35-1.47-.43-3.21-.9-5.22-1.4a41.64 41.64 0 0 1-5.21-1.83 15.8 15.8 0 0 1-4.39-2.78 11.91 11.91 0 0 1-3-4.32A16.67 16.67 0 0 1 8 35.36c0-3.37.72-6.15 2.15-8.35a12.82 12.82 0 0 1 5.98-4.9 23.17 23.17 0 0 1 8.96-1.6c3.03 0 5.5.43 7.4 1.29a9.94 9.94 0 0 1 4.48 3.9 22.42 22.42 0 0 1 2.59 6.78L36.5 29.8l1.47-8.45h5.63v12.93h-6.72a10.4 10.4 0 0 0-2.11-4.16 9.65 9.65 0 0 0-3.52-2.63c-1.37-.6-2.9-.9-4.61-.9-1.37 0-2.48.15-3.33.45a3.3 3.3 0 0 0-1.82 1.35 4.3 4.3 0 0 0-.55 2.3c0 .94.23 1.72.68 2.34a4.9 4.9 0 0 0 2.01 1.53c.9.4 2 .77 3.3 1.1l4.51 1.05a44.2 44.2 0 0 1 5.89 1.73c1.83.68 3.44 1.58 4.83 2.68a11.48 11.48 0 0 1 3.26 4.23c.8 1.7 1.19 3.86 1.19 6.46 0 3.46-.66 6.41-1.99 8.87a12.92 12.92 0 0 1-6.01 5.6c-2.69 1.28-6.06 1.92-10.11 1.92a24 24 0 0 1-7.9-1.19 12 12 0 0 1-5.67-4.06c-1.5-1.92-2.58-4.59-3.27-8l2.76 2.3-1.48 9.86H7.12V52.39h7.42c.73 2.3 1.73 4.17 3.01 5.6a11.68 11.68 0 0 0 4.42 3.13c1.66.67 3.39 1 5.18 1ZM59.66 29.6c-2.47 0-4.4-.54-5.79-1.63-1.38-1.09-2.08-2.68-2.08-4.77 0-2.09.7-3.68 2.08-4.76 1.39-1.1 3.32-1.64 5.8-1.64 2.51 0 4.45.55 5.82 1.64 1.36 1.08 2.05 2.67 2.05 4.76 0 2.1-.69 3.68-2.05 4.77-1.37 1.09-3.3 1.63-5.83 1.63Zm7.75 2.76V59.1c0 1.15.23 1.93.7 2.33.47.4 1.09.61 1.86.61h.13v5.06H49.8v-5.06h.14c.8 0 1.44-.2 1.88-.6.45-.41.68-1.19.68-2.34V39.84c0-.5-.18-.87-.52-1.08-.34-.22-.9-.4-1.66-.58l-.51-.13v-5.7h17.6Zm5.76 34.74v-5.05h.13c.8 0 1.44-.2 1.88-.6.45-.41.68-1.19.68-2.34V39.84c0-.34-.08-.6-.23-.8a1.66 1.66 0 0 0-.7-.48 9.96 9.96 0 0 0-1.25-.38l-.51-.13v-5.7h16.25l.84 8.45.5-.19v20.93c0 .13.1.24.3.32.19.09.41.14.67.16.25.02.96.03.96.03v5.06H73.17Zm41.85 0H96.21v-5.05s.71 0 .99-.03c.28-.02.5-.07.67-.16.17-.08.26-.2.26-.32V42.92a6.3 6.3 0 0 0-.2-1.7c-.12-.45-.36-.8-.7-1.06a2.3 2.3 0 0 0-1.4-.38 3.7 3.7 0 0 0-2.05.74 9.48 9.48 0 0 0-2.28 2.4 31.95 31.95 0 0 0-2.52 4.41l.19-6.01a18.24 18.24 0 0 1 3.33-5 15.67 15.67 0 0 1 4.64-3.42 12.46 12.46 0 0 1 5.47-1.25c2.22 0 4.1.43 5.66 1.28a8.6 8.6 0 0 1 3.59 3.71 13.08 13.08 0 0 1 1.24 6.02v18.88c0 .13.1.24.3.32.18.09.42.14.7.16.27.02.92.03.92.03v5.06Zm23.04 0h-19.52v-5.05s.7 0 .96-.03a2 2 0 0 0 .68-.16c.19-.08.28-.2.28-.32V42.92c0-.69-.07-1.25-.22-1.7a2.2 2.2 0 0 0-.7-1.06 2.16 2.16 0 0 0-1.38-.38c-.73 0-1.44.27-2.14.8-.7.53-1.46 1.34-2.24 2.43a34.8 34.8 0 0 0-2.53 4.2l.25-5.96a18.24 18.24 0 0 1 3.33-4.99 15.2 15.2 0 0 1 4.64-3.4 12.72 12.72 0 0 1 5.47-1.2c2.22 0 4.11.42 5.67 1.27a8.42 8.42 0 0 1 3.55 3.71 13.37 13.37 0 0 1 1.22 6.02v16.45c0 1.15.22 1.93.67 2.33.45.4 1.05.61 1.82.61h.2v5.06Zm20.23-34.74v24c0 .68.07 1.27.22 1.76s.42.86.8 1.12c.39.25.88.38 1.47.38.77 0 1.53-.27 2.28-.8a11 11 0 0 0 2.36-2.53c.84-1.15 1.7-2.62 2.6-4.41l-.26 6.27a15.89 15.89 0 0 1-8.1 8.38 13.3 13.3 0 0 1-5.6 1.22 12.2 12.2 0 0 1-5.79-1.28 8.66 8.66 0 0 1-3.68-3.75 12.85 12.85 0 0 1-1.28-5.98v-16.9c0-.5-.16-.88-.48-1.12a4.1 4.1 0 0 0-1.7-.54l-.63-.13v-5.7h17.79Zm22.85 0V59.8c0 .34.07.61.22.8.15.2.38.34.7.45l1.25.42.45.12v5.5H167.7l-.96-8.25-.58-.32V39.84c0-.5-.29-.9-.86-1.15a8.34 8.34 0 0 0-2.02-.57l-.83-.13v-5.63h18.69Zm23.48-13.76v40.5c0 1.16.24 1.94.7 2.34.48.4 1.1.61 1.86.61h.13v5.06h-20.29v-5.06h.13c.81 0 1.44-.2 1.89-.6.45-.41.67-1.19.67-2.34V25.89c0-.34-.07-.6-.22-.8a1.7 1.7 0 0 0-.74-.48 14 14 0 0 0-1.21-.38l-.52-.13v-5.5h17.6Zm28.87 42.68c1.23 0 2.34-.28 3.33-.86a9.35 9.35 0 0 0 2.59-2.27 19.3 19.3 0 0 0 1.95-2.95l4.86 2.95a17.32 17.32 0 0 1-3.36 5.12 14.04 14.04 0 0 1-5.08 3.36c-2 .79-4.36 1.18-7.04 1.18-3.97 0-7.47-.67-10.5-2.01a15.98 15.98 0 0 1-7.14-6.05c-1.72-2.69-2.59-6.04-2.59-10.05 0-3.93.82-7.22 2.47-9.89a15.42 15.42 0 0 1 7.04-6.05c3.05-1.36 6.73-2.04 11.04-2.04 2.51 0 4.72.16 6.62.48 1.9.32 3.48.69 4.74 1.12 1.25.42 2.16.8 2.72 1.15v11.2h-10.82V35.43c.64-.05 1.1.13 1.4.51a3.46 3.46 0 0 1 .55 2.78c-.1.45-.24.72-.41.8a5.28 5.28 0 0 0-3.97-1.54c-1.45 0-2.63.41-3.52 1.22-.9.81-1.55 2.08-1.95 3.81a30.5 30.5 0 0 0-.61 6.69c0 2.1.15 3.87.45 5.34a9.9 9.9 0 0 0 1.37 3.59 5.53 5.53 0 0 0 2.37 2.01 8.5 8.5 0 0 0 3.49.64Zm38.53-15.1v4.67c-1.5.3-2.76.63-3.78 1a10.4 10.4 0 0 0-2.5 1.21 4.65 4.65 0 0 0-2.17 3 8.1 8.1 0 0 0-.2 1.77c0 1.02.12 1.82.36 2.4.23.57.6.98 1.09 1.21a4.04 4.04 0 0 0 3.58-.12 6.82 6.82 0 0 0 1.76-1.5c.6-.7 1.22-1.6 1.86-2.76l.64 3a16.16 16.16 0 0 1-2.85 4.55 9.38 9.38 0 0 1-3.71 2.43 15.1 15.1 0 0 1-5.1.77c-2.5 0-4.6-.32-6.26-.96a7.05 7.05 0 0 1-3.68-2.94 10.03 10.03 0 0 1-1.19-5.19c0-1.87.4-3.47 1.22-4.8a9.76 9.76 0 0 1 3.84-3.39 30.15 30.15 0 0 1 6.85-2.46 98.9 98.9 0 0 1 10.24-1.89Zm.57 20.93-.77-6.79-.57.32v-19.9c0-.55-.1-1.07-.32-1.54a2.2 2.2 0 0 0-1.19-1.08 6.69 6.69 0 0 0-2.59-.39c-1.62 0-2.96.22-4.03.64-1.07.43-1.77.9-2.11 1.41-.47-.17-.78-.42-.93-.74-.15-.32-.12-.66.1-1.02.2-.36.57-.66 1.08-.9.52-.23 1.2-.33 2.05-.28v7.42h-11.33v-8.32a28.82 28.82 0 0 1 8.77-3.49 35.2 35.2 0 0 1 8-.8c2.73 0 5.15.25 7.27.74 2.1.49 3.89 1.21 5.34 2.17a9.53 9.53 0 0 1 3.3 3.62 11.04 11.04 0 0 1 1.12 5.12v16.51c0 .34.07.61.22.8.15.2.38.34.7.45l1.25.42.51.12v5.5H272.6Zm40.39-8.32c0-.77-.2-1.38-.61-1.83-.4-.44-.97-.82-1.7-1.12a14 14 0 0 0-2.46-.73 77.67 77.67 0 0 1-7.23-1.89 17.11 17.11 0 0 1-3.94-1.86 8.33 8.33 0 0 1-2.85-3.1 10.2 10.2 0 0 1-1.05-4.9c0-2.85.72-5.15 2.17-6.88a12.38 12.38 0 0 1 6.02-3.77c2.56-.8 5.5-1.19 8.83-1.19 2.77 0 5.14.17 7.1.52 1.97.34 3.55.71 4.74 1.12 1.2.4 1.98.71 2.37.92v7.68h-9.73v-5.88a3.21 3.21 0 0 1 1.73.16c.38.19.6.43.67.73.06.3.05.61-.03.93-.09.32-.2.59-.32.8a10.8 10.8 0 0 0-1.73-.67c-.64-.2-1.34-.34-2.11-.45a19.2 19.2 0 0 0-2.63-.16 7.8 7.8 0 0 0-3.42.58c-.75.38-1.12 1.06-1.12 2.04 0 .69.2 1.23.58 1.64.38.4.94.73 1.66.99.72.25 1.57.49 2.53.7a92.17 92.17 0 0 1 7.68 2.08 18.9 18.9 0 0 1 4.19 1.95 9.39 9.39 0 0 1 3.07 3.14 9.06 9.06 0 0 1 1.15 4.74c0 3.02-.67 5.48-2.01 7.36-1.35 1.87-3.41 3.25-6.21 4.12-2.8.88-6.3 1.32-10.53 1.32-2.56 0-4.87-.18-6.94-.52a32.4 32.4 0 0 1-5.15-1.21 26.5 26.5 0 0 1-2.95-1.15v-8.52h9.92v7.75c-.9-.26-1.6-.62-2.11-1.09a3.77 3.77 0 0 1-1.02-1.38c-.18-.44-.18-.79 0-1.02.17-.24.49-.22.96.03.5.21 1.13.44 1.85.67.73.24 1.56.42 2.5.55.94.13 1.98.19 3.13.19 1.2 0 2.16-.1 2.88-.32a2.77 2.77 0 0 0 1.6-1.09 3.5 3.5 0 0 0 .52-1.98Zm15.48-20.42v-5.7h.39c.9 0 1.67-.07 2.33-.22a2.73 2.73 0 0 0 1.57-.93c.39-.46.58-1.2.58-2.17l8.32 3h15.23v6.02h-28.42Zm19.4 17.41c0 1.32.18 2.34.54 3.04.36.7.88 1.18 1.54 1.44s1.48.38 2.46.38a14 14 0 0 0 2.6-.22c.78-.15 1.3-.22 1.56-.22v6.46a30.8 30.8 0 0 1-5.18.96c-1.2.13-2.5.2-3.9.2-2.9 0-5.45-.34-7.62-1a9.74 9.74 0 0 1-5.12-3.46c-1.24-1.64-1.86-3.89-1.86-6.75V33.7l.45-.58v-10.5h14.53v33.16Z"/><path fill="#f82" stroke="#f82" stroke-width="10" d="M27.15 58.12c1.54 0 2.77-.16 3.68-.48a3.71 3.71 0 0 0 2.02-1.5 5 5 0 0 0 .64-2.63 3.9 3.9 0 0 0-.7-2.37 5.64 5.64 0 0 0-2.18-1.66c-.98-.47-2.21-.92-3.68-1.35-1.47-.43-3.21-.9-5.22-1.4a41.64 41.64 0 0 1-5.21-1.83 15.8 15.8 0 0 1-4.39-2.78 11.91 11.91 0 0 1-3-4.32A16.67 16.67 0 0 1 8 31.36c0-3.37.72-6.15 2.15-8.35a12.82 12.82 0 0 1 5.98-4.9 23.17 23.17 0 0 1 8.96-1.6c3.03 0 5.5.43 7.4 1.29a9.94 9.94 0 0 1 4.48 3.9 22.42 22.42 0 0 1 2.59 6.78L36.5 25.8l1.47-8.45h5.63v12.93h-6.72a10.4 10.4 0 0 0-2.11-4.16 9.65 9.65 0 0 0-3.52-2.63c-1.37-.6-2.9-.9-4.61-.9-1.37 0-2.48.15-3.33.45a3.3 3.3 0 0 0-1.82 1.35 4.3 4.3 0 0 0-.55 2.3c0 .94.23 1.72.68 2.34a4.9 4.9 0 0 0 2.01 1.53c.9.4 2 .77 3.3 1.1l4.51 1.05a44.2 44.2 0 0 1 5.89 1.73c1.83.68 3.44 1.58 4.83 2.68a11.48 11.48 0 0 1 3.26 4.23c.8 1.7 1.19 3.86 1.19 6.46 0 3.46-.66 6.41-1.99 8.87a12.92 12.92 0 0 1-6.01 5.6c-2.69 1.28-6.06 1.92-10.11 1.92a24 24 0 0 1-7.9-1.19 12 12 0 0 1-5.67-4.06c-1.5-1.92-2.58-4.59-3.27-8l2.76 2.3-1.48 9.86H7.12V48.39h7.42c.73 2.3 1.73 4.17 3.01 5.6a11.68 11.68 0 0 0 4.42 3.13c1.66.67 3.39 1 5.18 1ZM59.66 25.6c-2.47 0-4.4-.54-5.79-1.63-1.38-1.09-2.08-2.68-2.08-4.77 0-2.09.7-3.68 2.08-4.76 1.39-1.1 3.32-1.64 5.8-1.64 2.51 0 4.45.55 5.82 1.64 1.36 1.08 2.05 2.67 2.05 4.76 0 2.1-.69 3.68-2.05 4.77-1.37 1.09-3.3 1.63-5.83 1.63Zm7.75 2.76V55.1c0 1.15.23 1.93.7 2.33.47.4 1.09.61 1.86.61h.13v5.06H49.8v-5.06h.14c.8 0 1.44-.2 1.88-.6.45-.41.68-1.19.68-2.34V35.84c0-.5-.18-.87-.52-1.08-.34-.22-.9-.4-1.66-.58l-.51-.13v-5.7h17.6Zm5.76 34.74v-5.05h.13c.8 0 1.44-.2 1.88-.6.45-.41.68-1.19.68-2.34V35.84c0-.34-.08-.6-.23-.8a1.66 1.66 0 0 0-.7-.48 9.96 9.96 0 0 0-1.25-.38l-.51-.13v-5.7h16.25l.84 8.45.5-.19v20.93c0 .13.1.24.3.32.19.09.41.14.67.16.25.02.96.03.96.03v5.06H73.17Zm41.85 0H96.21v-5.05s.71 0 .99-.03c.28-.02.5-.07.67-.16.17-.08.26-.2.26-.32V38.92a6.3 6.3 0 0 0-.2-1.7c-.12-.45-.36-.8-.7-1.06a2.3 2.3 0 0 0-1.4-.38 3.7 3.7 0 0 0-2.05.74 9.48 9.48 0 0 0-2.28 2.4 31.95 31.95 0 0 0-2.52 4.41l.19-6.01a18.24 18.24 0 0 1 3.33-5 15.67 15.67 0 0 1 4.64-3.42 12.46 12.46 0 0 1 5.47-1.25c2.22 0 4.1.43 5.66 1.28a8.6 8.6 0 0 1 3.59 3.71 13.08 13.08 0 0 1 1.24 6.02v18.88c0 .13.1.24.3.32.18.09.42.14.7.16.27.02.92.03.92.03v5.06Zm23.04 0h-19.52v-5.05s.7 0 .96-.03a2 2 0 0 0 .68-.16c.19-.08.28-.2.28-.32V38.92c0-.69-.07-1.25-.22-1.7a2.2 2.2 0 0 0-.7-1.06 2.16 2.16 0 0 0-1.38-.38c-.73 0-1.44.27-2.14.8-.7.53-1.46 1.34-2.24 2.43a34.8 34.8 0 0 0-2.53 4.2l.25-5.96a18.24 18.24 0 0 1 3.33-4.99 15.2 15.2 0 0 1 4.64-3.4 12.72 12.72 0 0 1 5.47-1.2c2.22 0 4.11.42 5.67 1.27a8.42 8.42 0 0 1 3.55 3.71 13.37 13.37 0 0 1 1.22 6.02v16.45c0 1.15.22 1.93.67 2.33.45.4 1.05.61 1.82.61h.2v5.06Zm20.23-34.74v24c0 .68.07 1.27.22 1.76s.42.86.8 1.12c.39.25.88.38 1.47.38.77 0 1.53-.27 2.28-.8a11 11 0 0 0 2.36-2.53c.84-1.15 1.7-2.62 2.6-4.41l-.26 6.27a15.89 15.89 0 0 1-8.1 8.38 13.3 13.3 0 0 1-5.6 1.22 12.2 12.2 0 0 1-5.79-1.28 8.66 8.66 0 0 1-3.68-3.75 12.85 12.85 0 0 1-1.28-5.98v-16.9c0-.5-.16-.88-.48-1.12a4.1 4.1 0 0 0-1.7-.54l-.63-.13v-5.7h17.79Zm22.85 0V55.8c0 .34.07.61.22.8.15.2.38.34.7.45l1.25.42.45.12v5.5H167.7l-.96-8.25-.58-.32V35.84c0-.5-.29-.9-.86-1.15a8.34 8.34 0 0 0-2.02-.57l-.83-.13v-5.63h18.69Zm23.48-13.76v40.5c0 1.16.24 1.94.7 2.34.48.4 1.1.61 1.86.61h.13v5.06h-20.29v-5.06h.13c.81 0 1.44-.2 1.89-.6.45-.41.67-1.19.67-2.34V21.89c0-.34-.07-.6-.22-.8a1.7 1.7 0 0 0-.74-.48 14 14 0 0 0-1.21-.38l-.52-.13v-5.5h17.6Zm28.87 42.68c1.23 0 2.34-.28 3.33-.86a9.35 9.35 0 0 0 2.59-2.27 19.3 19.3 0 0 0 1.95-2.95l4.86 2.95a17.32 17.32 0 0 1-3.36 5.12 14.04 14.04 0 0 1-5.08 3.36c-2 .79-4.36 1.18-7.04 1.18-3.97 0-7.47-.67-10.5-2.01a15.98 15.98 0 0 1-7.14-6.05c-1.72-2.69-2.59-6.04-2.59-10.05 0-3.93.82-7.22 2.47-9.89a15.42 15.42 0 0 1 7.04-6.05c3.05-1.36 6.73-2.04 11.04-2.04 2.51 0 4.72.16 6.62.48 1.9.32 3.48.69 4.74 1.12 1.25.42 2.16.8 2.72 1.15v11.2h-10.82V31.43c.64-.05 1.1.13 1.4.51a3.46 3.46 0 0 1 .55 2.78c-.1.45-.24.72-.41.8a5.28 5.28 0 0 0-3.97-1.54c-1.45 0-2.63.41-3.52 1.22-.9.81-1.55 2.08-1.95 3.81a30.5 30.5 0 0 0-.61 6.69c0 2.1.15 3.87.45 5.34a9.9 9.9 0 0 0 1.37 3.59 5.53 5.53 0 0 0 2.37 2.01 8.5 8.5 0 0 0 3.49.64Zm38.53-15.1v4.67c-1.5.3-2.76.63-3.78 1a10.4 10.4 0 0 0-2.5 1.21 4.65 4.65 0 0 0-2.17 3 8.1 8.1 0 0 0-.2 1.77c0 1.02.12 1.82.36 2.4.23.57.6.98 1.09 1.21a4.04 4.04 0 0 0 3.58-.12 6.82 6.82 0 0 0 1.76-1.5c.6-.7 1.22-1.6 1.86-2.76l.64 3a16.16 16.16 0 0 1-2.85 4.55 9.38 9.38 0 0 1-3.71 2.43 15.1 15.1 0 0 1-5.1.77c-2.5 0-4.6-.32-6.26-.96a7.05 7.05 0 0 1-3.68-2.94 10.03 10.03 0 0 1-1.19-5.19c0-1.87.4-3.47 1.22-4.8a9.76 9.76 0 0 1 3.84-3.39 30.15 30.15 0 0 1 6.85-2.46 98.9 98.9 0 0 1 10.24-1.89Zm.57 20.93-.77-6.79-.57.32v-19.9c0-.55-.1-1.07-.32-1.54a2.2 2.2 0 0 0-1.19-1.08 6.69 6.69 0 0 0-2.59-.39c-1.62 0-2.96.22-4.03.64-1.07.43-1.77.9-2.11 1.41-.47-.17-.78-.42-.93-.74-.15-.32-.12-.66.1-1.02.2-.36.57-.66 1.08-.9.52-.23 1.2-.33 2.05-.28v7.42h-11.33v-8.32a28.82 28.82 0 0 1 8.77-3.49 35.2 35.2 0 0 1 8-.8c2.73 0 5.15.25 7.27.74 2.1.49 3.89 1.21 5.34 2.17a9.53 9.53 0 0 1 3.3 3.62 11.04 11.04 0 0 1 1.12 5.12v16.51c0 .34.07.61.22.8.15.2.38.34.7.45l1.25.42.51.12v5.5H272.6Zm40.39-8.32c0-.77-.2-1.38-.61-1.83-.4-.44-.97-.82-1.7-1.12a14 14 0 0 0-2.46-.73 77.67 77.67 0 0 1-7.23-1.89 17.11 17.11 0 0 1-3.94-1.86 8.33 8.33 0 0 1-2.85-3.1 10.2 10.2 0 0 1-1.05-4.9c0-2.85.72-5.15 2.17-6.88a12.38 12.38 0 0 1 6.02-3.77c2.56-.8 5.5-1.19 8.83-1.19 2.77 0 5.14.18 7.1.52 1.97.34 3.55.71 4.74 1.12 1.2.4 1.98.71 2.37.92v7.68h-9.73v-5.88a3.21 3.21 0 0 1 1.73.16c.38.19.6.43.67.73.06.3.05.61-.03.93-.09.32-.2.59-.32.8a10.8 10.8 0 0 0-1.73-.67c-.64-.2-1.34-.34-2.11-.45a19.2 19.2 0 0 0-2.63-.16 7.8 7.8 0 0 0-3.42.58c-.75.38-1.12 1.06-1.12 2.04 0 .69.2 1.23.58 1.64.38.4.94.73 1.66.99.72.25 1.57.49 2.53.7a92.17 92.17 0 0 1 7.68 2.08 18.9 18.9 0 0 1 4.19 1.95 9.39 9.39 0 0 1 3.07 3.14 9.06 9.06 0 0 1 1.15 4.74c0 3.02-.67 5.48-2.01 7.36-1.35 1.87-3.41 3.25-6.21 4.12-2.8.88-6.3 1.32-10.53 1.32-2.56 0-4.87-.18-6.94-.52a32.4 32.4 0 0 1-5.15-1.21 26.5 26.5 0 0 1-2.95-1.15v-8.52h9.92v7.75c-.9-.26-1.6-.62-2.11-1.09a3.77 3.77 0 0 1-1.02-1.38c-.18-.44-.18-.79 0-1.02.17-.24.49-.22.96.03.5.21 1.13.44 1.85.67.73.24 1.56.42 2.5.55.94.13 1.98.19 3.13.19 1.2 0 2.16-.1 2.88-.32a2.77 2.77 0 0 0 1.6-1.09 3.5 3.5 0 0 0 .52-1.98Zm15.48-20.42v-5.7h.39c.9 0 1.67-.07 2.33-.22a2.73 2.73 0 0 0 1.57-.93c.39-.46.58-1.2.58-2.17l8.32 3h15.23v6.02h-28.42Zm19.4 17.41c0 1.32.18 2.34.54 3.04.36.7.88 1.18 1.54 1.44s1.48.38 2.46.38a14 14 0 0 0 2.6-.22c.78-.15 1.3-.22 1.56-.22v6.46a30.8 30.8 0 0 1-5.18.96c-1.2.13-2.5.2-3.9.2-2.9 0-5.45-.34-7.62-1a9.74 9.74 0 0 1-5.12-3.46c-1.24-1.64-1.86-3.89-1.86-6.75V29.7l.45-.58v-10.5h14.53v33.16Z"/><path fill="#fa2" stroke="#fa2" stroke-width="10" d="M27.15 53.12c1.54 0 2.77-.16 3.68-.48a3.71 3.71 0 0 0 2.02-1.5 5 5 0 0 0 .64-2.63 3.9 3.9 0 0 0-.7-2.37 5.64 5.64 0 0 0-2.18-1.66c-.98-.47-2.21-.92-3.68-1.35-1.47-.43-3.21-.9-5.22-1.4a41.64 41.64 0 0 1-5.21-1.83 15.8 15.8 0 0 1-4.39-2.78 11.91 11.91 0 0 1-3-4.32A16.67 16.67 0 0 1 8 26.36c0-3.37.72-6.15 2.15-8.35a12.82 12.82 0 0 1 5.98-4.9 23.17 23.17 0 0 1 8.96-1.6c3.03 0 5.5.43 7.4 1.29a9.94 9.94 0 0 1 4.48 3.9 22.42 22.42 0 0 1 2.59 6.78L36.5 20.8l1.47-8.45h5.63v12.93h-6.72a10.4 10.4 0 0 0-2.11-4.16 9.65 9.65 0 0 0-3.52-2.63c-1.37-.6-2.9-.9-4.61-.9-1.37 0-2.48.15-3.33.45a3.3 3.3 0 0 0-1.82 1.35 4.3 4.3 0 0 0-.55 2.3c0 .94.23 1.72.68 2.34a4.9 4.9 0 0 0 2.01 1.53c.9.4 2 .77 3.3 1.1l4.51 1.05a44.2 44.2 0 0 1 5.89 1.73c1.83.68 3.44 1.57 4.83 2.68a11.48 11.48 0 0 1 3.26 4.23c.8 1.7 1.19 3.86 1.19 6.46 0 3.46-.66 6.41-1.99 8.87a12.92 12.92 0 0 1-6.01 5.6c-2.69 1.28-6.06 1.92-10.11 1.92a24 24 0 0 1-7.9-1.19 12 12 0 0 1-5.67-4.06c-1.5-1.92-2.58-4.59-3.27-8l2.76 2.3-1.48 9.86H7.12V43.39h7.42c.73 2.3 1.73 4.17 3.01 5.6a11.68 11.68 0 0 0 4.42 3.13c1.66.67 3.39 1 5.18 1ZM59.66 20.6c-2.47 0-4.4-.54-5.79-1.63-1.38-1.09-2.08-2.68-2.08-4.77 0-2.09.7-3.68 2.08-4.76 1.39-1.1 3.32-1.64 5.8-1.64 2.51 0 4.45.55 5.82 1.64 1.36 1.08 2.05 2.67 2.05 4.76 0 2.1-.69 3.68-2.05 4.77-1.37 1.09-3.3 1.63-5.83 1.63Zm7.75 2.76V50.1c0 1.15.23 1.93.7 2.33.47.4 1.09.61 1.86.61h.13v5.06H49.8v-5.06h.14c.8 0 1.44-.2 1.88-.6.45-.41.68-1.19.68-2.34V30.84c0-.5-.18-.87-.52-1.08-.34-.22-.9-.4-1.66-.58l-.51-.13v-5.7h17.6Zm5.76 34.74v-5.05h.13c.8 0 1.44-.2 1.88-.6.45-.41.68-1.19.68-2.34V30.84c0-.34-.08-.6-.23-.8a1.66 1.66 0 0 0-.7-.48 9.96 9.96 0 0 0-1.25-.38l-.51-.13v-5.7h16.25l.84 8.45.5-.19v20.93c0 .13.1.24.3.32.19.09.41.14.67.16.25.02.96.03.96.03v5.06H73.17Zm41.85 0H96.21v-5.05s.71 0 .99-.03c.28-.02.5-.07.67-.16.17-.08.26-.2.26-.32V33.92a6.3 6.3 0 0 0-.2-1.7c-.12-.45-.36-.8-.7-1.06a2.3 2.3 0 0 0-1.4-.38 3.7 3.7 0 0 0-2.05.74 9.48 9.48 0 0 0-2.28 2.4 31.95 31.95 0 0 0-2.52 4.41l.19-6.01a18.24 18.24 0 0 1 3.33-5 15.67 15.67 0 0 1 4.64-3.42 12.46 12.46 0 0 1 5.47-1.25c2.22 0 4.1.43 5.66 1.28a8.6 8.6 0 0 1 3.59 3.71 13.08 13.08 0 0 1 1.24 6.02v18.88c0 .13.1.24.3.32.18.09.42.14.7.16.27.02.92.03.92.03v5.06Zm23.04 0h-19.52v-5.05s.7 0 .96-.03a2 2 0 0 0 .68-.16c.19-.08.28-.2.28-.32V33.92c0-.69-.07-1.25-.22-1.7a2.2 2.2 0 0 0-.7-1.06 2.16 2.16 0 0 0-1.38-.38c-.73 0-1.44.27-2.14.8-.7.53-1.46 1.34-2.24 2.43a34.8 34.8 0 0 0-2.53 4.2l.25-5.96a18.24 18.24 0 0 1 3.33-4.99 15.2 15.2 0 0 1 4.64-3.4 12.72 12.72 0 0 1 5.47-1.2c2.22 0 4.11.42 5.67 1.27a8.42 8.42 0 0 1 3.55 3.71 13.37 13.37 0 0 1 1.22 6.02v16.45c0 1.15.22 1.93.67 2.33.45.4 1.05.61 1.82.61h.2v5.06Zm20.23-34.74v24c0 .68.07 1.27.22 1.76s.42.86.8 1.12c.39.25.88.38 1.47.38.77 0 1.53-.27 2.28-.8a11 11 0 0 0 2.36-2.53c.84-1.15 1.7-2.62 2.6-4.41l-.26 6.27a15.89 15.89 0 0 1-8.1 8.38 13.3 13.3 0 0 1-5.6 1.22 12.2 12.2 0 0 1-5.79-1.28 8.66 8.66 0 0 1-3.68-3.75 12.85 12.85 0 0 1-1.28-5.98v-16.9c0-.5-.16-.88-.48-1.12a4.1 4.1 0 0 0-1.7-.54l-.63-.13v-5.7h17.79Zm22.85 0V50.8c0 .34.07.61.22.8.15.2.38.34.7.45l1.25.42.45.12v5.5H167.7l-.96-8.25-.58-.32V30.84c0-.5-.29-.9-.86-1.15a8.34 8.34 0 0 0-2.02-.57l-.83-.13v-5.63h18.69ZM204.62 9.6v40.5c0 1.16.24 1.94.7 2.34.48.4 1.1.61 1.86.61h.13v5.06h-20.29v-5.06h.13c.81 0 1.44-.2 1.89-.6.45-.41.67-1.19.67-2.34V16.89c0-.34-.07-.6-.22-.8a1.7 1.7 0 0 0-.74-.48 14 14 0 0 0-1.21-.38l-.52-.13V9.6h17.6Zm28.87 42.68c1.23 0 2.34-.28 3.33-.86a9.35 9.35 0 0 0 2.59-2.27 19.3 19.3 0 0 0 1.95-2.95l4.86 2.95a17.32 17.32 0 0 1-3.36 5.12 14.04 14.04 0 0 1-5.08 3.36c-2 .79-4.36 1.18-7.04 1.18-3.97 0-7.47-.67-10.5-2.01a15.98 15.98 0 0 1-7.14-6.05c-1.72-2.69-2.59-6.04-2.59-10.05 0-3.93.82-7.22 2.47-9.89a15.42 15.42 0 0 1 7.04-6.05c3.05-1.36 6.73-2.04 11.04-2.04 2.51 0 4.72.16 6.62.48 1.9.32 3.48.69 4.74 1.12 1.25.42 2.16.8 2.72 1.15v11.2h-10.82V26.43c.64-.05 1.1.13 1.4.51a3.46 3.46 0 0 1 .55 2.78c-.1.45-.24.72-.41.8a5.28 5.28 0 0 0-3.97-1.54c-1.45 0-2.63.41-3.52 1.22-.9.81-1.55 2.08-1.95 3.81a30.5 30.5 0 0 0-.61 6.69c0 2.1.15 3.87.45 5.34a9.9 9.9 0 0 0 1.37 3.59 5.53 5.53 0 0 0 2.37 2.01 8.5 8.5 0 0 0 3.49.64Zm38.53-15.1v4.67c-1.5.3-2.76.63-3.78 1a10.4 10.4 0 0 0-2.5 1.21 4.65 4.65 0 0 0-2.17 3 8.1 8.1 0 0 0-.2 1.77c0 1.02.12 1.82.36 2.4.23.57.6.98 1.09 1.21a4.04 4.04 0 0 0 3.58-.12 6.82 6.82 0 0 0 1.76-1.5c.6-.7 1.22-1.6 1.86-2.76l.64 3a16.16 16.16 0 0 1-2.85 4.55 9.38 9.38 0 0 1-3.71 2.43 15.1 15.1 0 0 1-5.1.77c-2.5 0-4.6-.32-6.26-.96a7.05 7.05 0 0 1-3.68-2.94 10.03 10.03 0 0 1-1.19-5.19c0-1.87.4-3.47 1.22-4.8a9.76 9.76 0 0 1 3.84-3.39 30.15 30.15 0 0 1 6.85-2.46 98.9 98.9 0 0 1 10.24-1.89Zm.57 20.93-.77-6.79-.57.32v-19.9c0-.55-.1-1.07-.32-1.54a2.2 2.2 0 0 0-1.19-1.08 6.69 6.69 0 0 0-2.59-.39c-1.62 0-2.96.22-4.03.64-1.07.43-1.77.9-2.11 1.41-.47-.17-.78-.42-.93-.74-.15-.32-.12-.66.1-1.02.2-.36.57-.66 1.08-.9.52-.23 1.2-.33 2.05-.28v7.42h-11.33v-8.32a28.82 28.82 0 0 1 8.77-3.49 35.2 35.2 0 0 1 8-.8c2.73 0 5.15.25 7.27.74 2.1.49 3.89 1.21 5.34 2.17a9.53 9.53 0 0 1 3.3 3.62 11.04 11.04 0 0 1 1.12 5.12v16.51c0 .34.07.61.22.8.15.2.38.34.7.45l1.25.42.51.12v5.5H272.6Zm40.39-8.32c0-.77-.2-1.38-.61-1.83-.4-.44-.97-.82-1.7-1.12a14 14 0 0 0-2.46-.73 77.67 77.67 0 0 1-7.23-1.89 17.11 17.11 0 0 1-3.94-1.86 8.33 8.33 0 0 1-2.85-3.1 10.2 10.2 0 0 1-1.05-4.9c0-2.85.72-5.15 2.17-6.88a12.38 12.38 0 0 1 6.02-3.77c2.56-.8 5.5-1.19 8.83-1.19 2.77 0 5.14.18 7.1.52 1.97.34 3.55.71 4.74 1.12 1.2.4 1.98.71 2.37.92v7.68h-9.73v-5.88a3.21 3.21 0 0 1 1.73.16c.38.19.6.43.67.73.06.3.05.61-.03.93-.09.32-.2.59-.32.8a10.8 10.8 0 0 0-1.73-.67c-.64-.2-1.34-.34-2.11-.45a19.2 19.2 0 0 0-2.63-.16 7.8 7.8 0 0 0-3.42.58c-.75.38-1.12 1.06-1.12 2.04 0 .69.2 1.23.58 1.64.38.4.94.73 1.66.99.72.25 1.57.49 2.53.7a92.17 92.17 0 0 1 7.68 2.08 18.9 18.9 0 0 1 4.19 1.95 9.39 9.39 0 0 1 3.07 3.14 9.06 9.06 0 0 1 1.15 4.74c0 3.03-.67 5.48-2.01 7.36-1.35 1.87-3.41 3.25-6.21 4.12-2.8.88-6.3 1.32-10.53 1.32-2.56 0-4.87-.17-6.94-.52a32.4 32.4 0 0 1-5.15-1.21 26.5 26.5 0 0 1-2.95-1.15v-8.52h9.92v7.75c-.9-.26-1.6-.62-2.11-1.09a3.77 3.77 0 0 1-1.02-1.38c-.18-.44-.18-.78 0-1.02.17-.23.49-.22.96.03.5.21 1.13.44 1.85.67.73.24 1.56.42 2.5.55.94.13 1.98.19 3.13.19 1.2 0 2.16-.1 2.88-.32a2.77 2.77 0 0 0 1.6-1.09 3.5 3.5 0 0 0 .52-1.98Zm15.48-20.42v-5.7h.39c.9 0 1.67-.07 2.33-.22a2.73 2.73 0 0 0 1.57-.93c.39-.46.58-1.2.58-2.17l8.32 3h15.23v6.02h-28.42Zm19.4 17.41c0 1.32.18 2.34.54 3.04.36.7.88 1.18 1.54 1.44s1.48.38 2.46.38a14 14 0 0 0 2.6-.22c.78-.15 1.3-.22 1.56-.22v6.46a30.8 30.8 0 0 1-5.18.96c-1.2.13-2.5.2-3.9.2-2.9 0-5.45-.34-7.62-1a9.74 9.74 0 0 1-5.12-3.46c-1.24-1.64-1.86-3.89-1.86-6.75V24.7l.45-.58v-10.5h14.53v33.16Z"/><path fill="#fff" d="M27.15 53.12c1.54 0 2.77-.16 3.68-.48a3.71 3.71 0 0 0 2.02-1.5 5 5 0 0 0 .64-2.63 3.9 3.9 0 0 0-.7-2.37 5.64 5.64 0 0 0-2.18-1.66c-.98-.47-2.21-.92-3.68-1.35-1.47-.43-3.21-.9-5.22-1.4a41.64 41.64 0 0 1-5.21-1.83 15.8 15.8 0 0 1-4.39-2.78 11.91 11.91 0 0 1-3-4.32A16.67 16.67 0 0 1 8 26.36c0-3.37.72-6.15 2.15-8.35a12.82 12.82 0 0 1 5.98-4.9 23.17 23.17 0 0 1 8.96-1.6c3.03 0 5.5.43 7.4 1.29a9.94 9.94 0 0 1 4.48 3.9 22.42 22.42 0 0 1 2.59 6.78L36.5 20.8l1.47-8.45h5.63v12.93h-6.72a10.4 10.4 0 0 0-2.11-4.16 9.65 9.65 0 0 0-3.52-2.63c-1.37-.6-2.9-.9-4.61-.9-1.37 0-2.48.15-3.33.45a3.3 3.3 0 0 0-1.82 1.35 4.3 4.3 0 0 0-.55 2.3c0 .94.23 1.72.68 2.34a4.9 4.9 0 0 0 2.01 1.53c.9.4 2 .77 3.3 1.1l4.51 1.05a44.2 44.2 0 0 1 5.89 1.73c1.83.68 3.44 1.57 4.83 2.68a11.48 11.48 0 0 1 3.26 4.23c.8 1.7 1.19 3.86 1.19 6.46 0 3.46-.66 6.41-1.99 8.87a12.92 12.92 0 0 1-6.01 5.6c-2.69 1.28-6.06 1.92-10.11 1.92a24 24 0 0 1-7.9-1.19 12 12 0 0 1-5.67-4.06c-1.5-1.92-2.58-4.59-3.27-8l2.76 2.3-1.48 9.86H7.12V43.39h7.42c.73 2.3 1.73 4.17 3.01 5.6a11.68 11.68 0 0 0 4.42 3.13c1.66.67 3.39 1 5.18 1ZM59.66 20.6c-2.47 0-4.4-.54-5.79-1.63-1.38-1.09-2.08-2.68-2.08-4.77 0-2.09.7-3.68 2.08-4.76 1.39-1.1 3.32-1.64 5.8-1.64 2.51 0 4.45.55 5.82 1.64 1.36 1.08 2.05 2.67 2.05 4.76 0 2.1-.69 3.68-2.05 4.77-1.37 1.09-3.3 1.63-5.83 1.63Zm7.75 2.76V50.1c0 1.15.23 1.93.7 2.33.47.4 1.09.61 1.86.61h.13v5.06H49.8v-5.06h.14c.8 0 1.44-.2 1.88-.6.45-.41.68-1.19.68-2.34V30.84c0-.5-.18-.87-.52-1.08-.34-.22-.9-.4-1.66-.58l-.51-.13v-5.7h17.6Zm5.76 34.74v-5.05h.13c.8 0 1.44-.2 1.88-.6.45-.41.68-1.19.68-2.34V30.84c0-.34-.08-.6-.23-.8a1.66 1.66 0 0 0-.7-.48 9.96 9.96 0 0 0-1.25-.38l-.51-.13v-5.7h16.25l.84 8.45.5-.19v20.93c0 .13.1.24.3.32.19.09.41.14.67.16.25.02.96.03.96.03v5.06H73.17Zm41.85 0H96.21v-5.05s.71 0 .99-.03c.28-.02.5-.07.67-.16.17-.08.26-.2.26-.32V33.92a6.3 6.3 0 0 0-.2-1.7c-.12-.45-.36-.8-.7-1.06a2.3 2.3 0 0 0-1.4-.38 3.7 3.7 0 0 0-2.05.74 9.48 9.48 0 0 0-2.28 2.4 31.95 31.95 0 0 0-2.52 4.41l.19-6.01a18.24 18.24 0 0 1 3.33-5 15.67 15.67 0 0 1 4.64-3.42 12.46 12.46 0 0 1 5.47-1.25c2.22 0 4.1.43 5.66 1.28a8.6 8.6 0 0 1 3.59 3.71 13.08 13.08 0 0 1 1.24 6.02v18.88c0 .13.1.24.3.32.18.09.42.14.7.16.27.02.92.03.92.03v5.06Zm23.04 0h-19.52v-5.05s.7 0 .96-.03a2 2 0 0 0 .68-.16c.19-.08.28-.2.28-.32V33.92c0-.69-.07-1.25-.22-1.7a2.2 2.2 0 0 0-.7-1.06 2.16 2.16 0 0 0-1.38-.38c-.73 0-1.44.27-2.14.8-.7.53-1.46 1.34-2.24 2.43a34.8 34.8 0 0 0-2.53 4.2l.25-5.96a18.24 18.24 0 0 1 3.33-4.99 15.2 15.2 0 0 1 4.64-3.4 12.72 12.72 0 0 1 5.47-1.2c2.22 0 4.11.42 5.67 1.27a8.42 8.42 0 0 1 3.55 3.71 13.37 13.37 0 0 1 1.22 6.02v16.45c0 1.15.22 1.93.67 2.33.45.4 1.05.61 1.82.61h.2v5.06Zm20.23-34.74v24c0 .68.07 1.27.22 1.76s.42.86.8 1.12c.39.25.88.38 1.47.38.77 0 1.53-.27 2.28-.8a11 11 0 0 0 2.36-2.53c.84-1.15 1.7-2.62 2.6-4.41l-.26 6.27a15.89 15.89 0 0 1-8.1 8.38 13.3 13.3 0 0 1-5.6 1.22 12.2 12.2 0 0 1-5.79-1.28 8.66 8.66 0 0 1-3.68-3.75 12.85 12.85 0 0 1-1.28-5.98v-16.9c0-.5-.16-.88-.48-1.12a4.1 4.1 0 0 0-1.7-.54l-.63-.13v-5.7h17.79Zm22.85 0V50.8c0 .34.07.61.22.8.15.2.38.34.7.45l1.25.42.45.12v5.5H167.7l-.96-8.25-.58-.32V30.84c0-.5-.29-.9-.86-1.15a8.34 8.34 0 0 0-2.02-.57l-.83-.13v-5.63h18.69ZM204.62 9.6v40.5c0 1.16.24 1.94.7 2.34.48.4 1.1.61 1.86.61h.13v5.06h-20.29v-5.06h.13c.81 0 1.44-.2 1.89-.6.45-.41.67-1.19.67-2.34V16.89c0-.34-.07-.6-.22-.8a1.7 1.7 0 0 0-.74-.48 14 14 0 0 0-1.21-.38l-.52-.13V9.6h17.6Zm28.87 42.68c1.23 0 2.34-.28 3.33-.86a9.35 9.35 0 0 0 2.59-2.27 19.3 19.3 0 0 0 1.95-2.95l4.86 2.95a17.32 17.32 0 0 1-3.36 5.12 14.04 14.04 0 0 1-5.08 3.36c-2 .79-4.36 1.18-7.04 1.18-3.97 0-7.47-.67-10.5-2.01a15.98 15.98 0 0 1-7.14-6.05c-1.72-2.69-2.59-6.04-2.59-10.05 0-3.93.82-7.22 2.47-9.89a15.42 15.42 0 0 1 7.04-6.05c3.05-1.36 6.73-2.04 11.04-2.04 2.51 0 4.72.16 6.62.48 1.9.32 3.48.69 4.74 1.12 1.25.42 2.16.8 2.72 1.15v11.2h-10.82V26.43c.64-.05 1.1.13 1.4.51a3.46 3.46 0 0 1 .55 2.78c-.1.45-.24.72-.41.8a5.28 5.28 0 0 0-3.97-1.54c-1.45 0-2.63.41-3.52 1.22-.9.81-1.55 2.08-1.95 3.81a30.5 30.5 0 0 0-.61 6.69c0 2.1.15 3.87.45 5.34a9.9 9.9 0 0 0 1.37 3.59 5.53 5.53 0 0 0 2.37 2.01 8.5 8.5 0 0 0 3.49.64Zm38.53-15.1v4.67c-1.5.3-2.76.63-3.78 1a10.4 10.4 0 0 0-2.5 1.21 4.65 4.65 0 0 0-2.17 3 8.1 8.1 0 0 0-.2 1.77c0 1.02.12 1.82.36 2.4.23.57.6.98 1.09 1.21a4.04 4.04 0 0 0 3.58-.12 6.82 6.82 0 0 0 1.76-1.5c.6-.7 1.22-1.6 1.86-2.76l.64 3a16.16 16.16 0 0 1-2.85 4.55 9.38 9.38 0 0 1-3.71 2.43 15.1 15.1 0 0 1-5.1.77c-2.5 0-4.6-.32-6.26-.96a7.05 7.05 0 0 1-3.68-2.94 10.03 10.03 0 0 1-1.19-5.19c0-1.87.4-3.47 1.22-4.8a9.76 9.76 0 0 1 3.84-3.39 30.15 30.15 0 0 1 6.85-2.46 98.9 98.9 0 0 1 10.24-1.89Zm.57 20.93-.77-6.79-.57.32v-19.9c0-.55-.1-1.07-.32-1.54a2.2 2.2 0 0 0-1.19-1.08 6.69 6.69 0 0 0-2.59-.39c-1.62 0-2.96.22-4.03.64-1.07.43-1.77.9-2.11 1.41-.47-.17-.78-.42-.93-.74-.15-.32-.12-.66.1-1.02.2-.36.57-.66 1.08-.9.52-.23 1.2-.33 2.05-.28v7.42h-11.33v-8.32a28.82 28.82 0 0 1 8.77-3.49 35.2 35.2 0 0 1 8-.8c2.73 0 5.15.25 7.27.74 2.1.49 3.89 1.21 5.34 2.17a9.53 9.53 0 0 1 3.3 3.62 11.04 11.04 0 0 1 1.12 5.12v16.51c0 .34.07.61.22.8.15.2.38.34.7.45l1.25.42.51.12v5.5H272.6Zm40.39-8.32c0-.77-.2-1.38-.61-1.83-.4-.44-.97-.82-1.7-1.12a14 14 0 0 0-2.46-.73 77.67 77.67 0 0 1-7.23-1.89 17.11 17.11 0 0 1-3.94-1.86 8.33 8.33 0 0 1-2.85-3.1 10.2 10.2 0 0 1-1.05-4.9c0-2.85.72-5.15 2.17-6.88a12.38 12.38 0 0 1 6.02-3.77c2.56-.8 5.5-1.19 8.83-1.19 2.77 0 5.14.18 7.1.52 1.97.34 3.55.71 4.74 1.12 1.2.4 1.98.71 2.37.92v7.68h-9.73v-5.88a3.21 3.21 0 0 1 1.73.16c.38.19.6.43.67.73.06.3.05.61-.03.93-.09.32-.2.59-.32.8a10.8 10.8 0 0 0-1.73-.67c-.64-.2-1.34-.34-2.11-.45a19.2 19.2 0 0 0-2.63-.16 7.8 7.8 0 0 0-3.42.58c-.75.38-1.12 1.06-1.12 2.04 0 .69.2 1.23.58 1.64.38.4.94.73 1.66.99.72.25 1.57.49 2.53.7a92.17 92.17 0 0 1 7.68 2.08 18.9 18.9 0 0 1 4.19 1.95 9.39 9.39 0 0 1 3.07 3.14 9.06 9.06 0 0 1 1.15 4.74c0 3.03-.67 5.48-2.01 7.36-1.35 1.87-3.41 3.25-6.21 4.12-2.8.88-6.3 1.32-10.53 1.32-2.56 0-4.87-.17-6.94-.52a32.4 32.4 0 0 1-5.15-1.21 26.5 26.5 0 0 1-2.95-1.15v-8.52h9.92v7.75c-.9-.26-1.6-.62-2.11-1.09a3.77 3.77 0 0 1-1.02-1.38c-.18-.44-.18-.78 0-1.02.17-.23.49-.22.96.03.5.21 1.13.44 1.85.67.73.24 1.56.42 2.5.55.94.13 1.98.19 3.13.19 1.2 0 2.16-.1 2.88-.32a2.77 2.77 0 0 0 1.6-1.09 3.5 3.5 0 0 0 .52-1.98Zm15.48-20.42v-5.7h.39c.9 0 1.67-.07 2.33-.22a2.73 2.73 0 0 0 1.57-.93c.39-.46.58-1.2.58-2.17l8.32 3h15.23v6.02h-28.42Zm19.4 17.41c0 1.32.18 2.34.54 3.04.36.7.88 1.18 1.54 1.44s1.48.38 2.46.38a14 14 0 0 0 2.6-.22c.78-.15 1.3-.22 1.56-.22v6.46a30.8 30.8 0 0 1-5.18.96c-1.2.13-2.5.2-3.9.2-2.9 0-5.45-.34-7.62-1a9.74 9.74 0 0 1-5.12-3.46c-1.24-1.64-1.86-3.89-1.86-6.75V24.7l.45-.58v-10.5h14.53v33.16Z"/></g></svg>