<svg xmlns="http://www.w3.org/2000/svg" fill="none" stroke="#c87" stroke-linecap="round" stroke-linejoin="round" viewBox="0 0 92 36"><path d="M26.5 1.5h-4v3h4-4v3h4m-7-6-2 6-2-6m-4 0c.5 0 1 .5 1 1v4c0 .5-.5 1-1 1h-2a1 1 0 0 1-1-1v-4c0-.5.5-1 1-1h2Zm-6 0h-3a1 1 0 0 0-1 1v4c0 .5.5 1 1 1h3m24 0v-6l4 6v-6M26.5 4.5h-4v3h4-4v3h4m3 0v-6l4 6v-6m7 0h-3a1 1 0 0 0-1 1v4c0 .5.5 1 1 1h3v-3m3-3v6m3 0v-6l4 6v-6m7 0h-4v3h4-4v3h4m7-6h-4v3h4-4v3h4m3 0v-6h3c.6 0 1 .4 1 1v1c0 .6-.4 1-1 1h-3 2l2 3m3-6v6m3 0v-6l4 6v-6m7 0h-3a1 1 0 0 0-1 1v4c0 .5.5 1 1 1h3v-3"/><path d="M27.5 33.5v-15a3 3 0 0 1 3-3h6a3 3 0 0 1 3 3v6h-12 12v9m13-18h12-6v18M77.5 33.5v-18m12 0v18m-12-9h12m-87 9v-18l6 9 6-9v18" stroke-width="3"/></svg>