<svg xmlns="http://www.w3.org/2000/svg" xml:space="preserve" fill-rule="evenodd" stroke-linecap="round" stroke-linejoin="round" clip-rule="evenodd" viewBox="0 0 99 36"><path fill="none" stroke="#c87" d="M26.5 1.5h-4v3h4-4v3h4m-7-6-2 6-2-6m-4 0q.9.1 1 1v4q-.1.9-1 1h-2a1 1 0 0 1-1-1v-4q.1-.9 1-1zm-6 0h-3a1 1 0 0 0-1 1v4q.1.9 1 1h3m24 0v-6l4 6v-6m-7 3h-4v3h4-4v3h4m3 0v-6l4 6v-6m7 0h-3a1 1 0 0 0-1 1v4q.1.9 1 1h3v-3m3-3v6m3 0v-6l4 6v-6m7 0h-4v3h4-4v3h4m7-6h-4v3h4-4v3h4m3 0v-6h3q1 0 1 1v1q0 1-1 1h-3 2l2 3m3-6v6m3 0v-6l4 6v-6m7 0h-3a1 1 0 0 0-1 1v4q.1.9 1 1h3v-3"/><path fill="none" stroke="#c87" stroke-width="3" d="M75.5 15.5h-12v9h12-12v9h12m21-18h-9a3 3 0 0 0-3 3v3a3 3 0 0 0 3 3h6a3 3 0 0 1 3 3v3a3 3 0 0 1-3 3h-9m-42-18v18h12m-32-18v15a3 3 0 0 0 3 3h6a3 3 0 0 0 3-3v-15m-32 9h9a3 3 0 0 0 3-3v-3a3 3 0 0 0-3-3h-9v18m0-9h6l6 9"/></svg>