<svg xmlns="http://www.w3.org/2000/svg" fill="none" stroke="#000" stroke-linecap="round" stroke-linejoin="round" viewBox="0 0 101 36"><style>@media(prefers-color-scheme:dark){path{stroke:#fff}}</style><path d="M26.5 1.5h-4v3h4-4v3h4m-7-6-2 6-2-6m-4 0a1 1 0 0 1 1 1v4a1 1 0 0 1-1 1h-2a1 1 0 0 1-1-1v-4a1 1 0 0 1 1-1h2Zm-6 0h-3a1 1 0 0 0-1 1v4a1 1 0 0 0 1 1h3m24 0v-6l4 6v-6m-7 3h-4v3h4-4v3h4m3 0v-6l4 6v-6m7 0h-3a1 1 0 0 0-1 1v4a1 1 0 0 0 1 1h3v-3m3-3v6m3 0v-6l4 6v-6m7 0h-4v3h4-4v3h4m7-6h-4v3h4-4v3h4m3 0v-6h3a1 1 0 0 1 1 1v1a1 1 0 0 1-1 1h-3 2l2 3m3-6v6m3 0v-6l4 6v-6m7 0h-3a1 1 0 0 0-1 1v4a1 1 0 0 0 1 1h3v-3"/><path stroke-width="3" d="M98.5 15.5h-9a3 3 0 0 0-3 3v3a3 3 0 0 0 3 3h6a3 3 0 0 1 3 3v3a3 3 0 0 1-3 3h-9m-42 0v-18h9a3 3 0 0 1 3 3v3a3 3 0 0 1-3 3h-9m33 9h-12v-9h12-12v-9h12m-75 0h12-6v18m15-18 6 9 6-9-6 9v9"/></svg>